<svg xmlns="http://www.w3.org/2000/svg">
<defs>
<font id="886537f073883bb4d58e1efa04df6141" horiz-adv-x='1024' >
  <font-face 
    font-family="Fipps-Regular"
    font-weight="400"
    font-stretch="normal"
    units-per-em="2048"
    panose-1="0 0 0 0 0 0 0 0 0 0"
    ascent="1638"
    descent="-410"
    x-height="2048"
    cap-height="2560"
    bbox="-256 -768 3584 3584"
    underline-thickness="512"
    underline-position="0"
    unicode-range="U+0020-FB02"
  />
<missing-glyph horiz-adv-x="3346" 
d="M2898 1337v-2l-8 4v2zM2906 1326q0 5 2 5q8 0 16 -15q8 -16 18 -24q9 -8 11 -12l-2 -10q-7 0 -11 12q-3 12 -5 15q-1 3 -15 13t-14 16zM2955 586l-4 119q0 12 8 6q11 -23 9 -67t4 -66q10 20 9 80t-5 90h-10l-13 26q2 4 11 26q10 22 16 26q32 17 33 28l-4 6
q-68 29 -72 133t7 182q11 79 11 89q21 -2 21 -39t-4 -135t10 -191l33 -37q39 0 39 -12l-7 -8q-37 -2 -49 -16t-12 -54l4 -193q0 -106 -35 -182q-14 -31 -46 -35q-33 -4 -50 -10q-2 0 -2 10q10 4 32 8t40 25q27 39 26 191zM2966 733h-7q3 4 7 0zM2220 615q0 -21 -15 -47
t-40 -25q-43 1 -39 49t13 82t9 42q0 9 -44 79t-44 85t8 22t14 3t35 -63q28 -59 46 -78q2 -2 8 2h4l30 50q105 175 112 247q2 22 24 33l18 -17q6 -27 0 -88t-1 -126t28 -64q6 0 43 10q170 43 170 10q0 -8 -8 -18q-12 -6 -107 -35t-99 -35q-3 -6 0 -23q24 -139 -5 -141
q-23 0 -46 88q-24 88 -20 115l15 45q0 23 -2 67l-3 66l-4 2q-16 -14 -70 -116t-54 -120t12 -48q12 -31 12 -53zM1929 970q0 -5 -11 -8t-19 3t-13 9q-8 6 -8 13l-6 25l-10 30q0 18 11 18t14 -3q3 -4 23 -43t19 -44zM1309 578q-29 0 -74 368q-2 14 1 65t-13 54q-4 2 -9 -8
q-40 -85 -112 -191t-108 -143t-106 -97q-71 -60 -71 -87q-1 -246 9 -357t8 -171t2 -87l-19 -28q-24 0 -29 97v21q-66 657 9 926q2 10 22 20q50 26 111 6q61 -21 65 -153l4 -4q10 12 70 80t99 141q39 72 47 134q9 63 32 63l19 -35q-6 -82 8 -295t41 -248q20 23 36 83
q15 60 41 110t76 63q14 4 28 -22q12 -27 22 -63q25 -95 75 -95l27 33q0 139 16 180l25 16q49 0 51 -47t-24 -102t-29 -103q-4 -48 37 -47q33 0 94 76t82 76l57 -164l-16 -14q-51 98 -60 121q-31 -41 -53 -66q-66 -76 -113 -55q-30 12 -57 57q-42 10 -64 17q-47 15 -72 97

<glyph glyph-name=".notdef" horiz-adv-x="3346" 
d="M2898 1337v-2l-8 4v2zM2906 1326q0 5 2 5q8 0 16 -15q8 -16 18 -24q9 -8 11 -12l-2 -10q-7 0 -11 12q-3 12 -5 15q-1 3 -15 13t-14 16zM2955 586l-4 119q0 12 8 6q11 -23 9 -67t4 -66q10 20 9 80t-5 90h-10l-13 26q2 4 11 26q10 22 16 26q32 17 33 28l-4 6
q-68 29 -72 133t7 182q11 79 11 89q21 -2 21 -39t-4 -135t10 -191l33 -37q39 0 39 -12l-7 -8q-37 -2 -49 -16t-12 -54l4 -193q0 -106 -35 -182q-14 -31 -46 -35q-33 -4 -50 -10q-2 0 -2 10q10 4 32 8t40 25q27 39 26 191zM2966 733h-7q3 4 7 0zM2220 615q0 -21 -15 -47
t-40 -25q-43 1 -39 49t13 82t9 42q0 9 -44 79t-44 85t8 22t14 3t35 -63q28 -59 46 -78q2 -2 8 2h4l30 50q105 175 112 247q2 22 24 33l18 -17q6 -27 0 -88t-1 -126t28 -64q6 0 43 10q170 43 170 10q0 -8 -8 -18q-12 -6 -107 -35t-99 -35q-3 -6 0 -23q24 -139 -5 -141
q-23 0 -46 88q-24 88 -20 115l15 45q0 23 -2 67l-3 66l-4 2q-16 -14 -70 -116t-54 -120t12 -48q12 -31 12 -53zM1929 970q0 -5 -11 -8t-19 3t-13 9q-8 6 -8 13l-6 25l-10 30q0 18 11 18t14 -3q3 -4 23 -43t19 -44zM1309 578q-29 0 -74 368q-2 14 1 65t-13 54q-4 2 -9 -8
q-40 -85 -112 -191t-108 -143t-106 -97q-71 -60 -71 -87q-1 -246 9 -357t8 -171t2 -87l-19 -28q-24 0 -29 97v21q-66 657 9 926q2 10 22 20q50 26 111 6q61 -21 65 -153l4 -4q10 12 70 80t99 141q39 72 47 134q9 63 32 63l19 -35q-6 -82 8 -295t41 -248q20 23 36 83
q15 60 41 110t76 63q14 4 28 -22q12 -27 22 -63q25 -95 75 -95l27 33q0 139 16 180l25 16q49 0 51 -47t-24 -102t-29 -103q-4 -48 37 -47q33 0 94 76t82 76l57 -164l-16 -14q-51 98 -60 121q-31 -41 -53 -66q-66 -76 -113 -55q-30 12 -57 57q-42 10 -64 17q-47 15 -72 97
q-11 36 -19 60l-11 6q-21 -21 -84 -155q-63 -133 -71 -133zM406 1264l8 2l-2 -2h-6zM399 1252q0 -5 -14 -15t-16 -14q0 -17 -13 -27q-12 4 2 25l9 2q27 35 29 35t3 -6zM336 674q-17 0 -16 -39q2 -39 3 -62t3 -43t2 -24l2 -2q12 16 11 63t1 68q16 -33 9 -105t2 -150t46 -83
q39 -4 47 -10t-12 -6l-37 4q-73 0 -73 194q0 18 -9 19q-4 16 1 137t-13 121q-5 6 -29 10t-24 10q2 0 16 5q48 17 56 44q21 80 14 179q-8 100 -8 143t22 43q6 -41 10 -121t7 -98q12 -10 -2 -76q-15 -66 -25 -79t-28 -21t-19 -15l57 -80l-12 -26h-2zM2937 1036v-32l4 -5
q8 13 8 25l-6 12h-6zM2171 657q-8 -7 -11 -37t9 -32q16 0 17 32t-15 37zM1681 880q0 32 -12 31q-6 1 -11 -29t-5 -42t6 -19q22 27 22 59zM965 852q0 74 -68 88q-53 10 -74 -22q-4 -8 -4 -17l2 -102l-4 -144q0 -23 7 -23t40 25q61 53 81 87t20 108zM360 926l7 2l-2 35
q-15 -6 -5 -37z" />
    <glyph glyph-name=".null" horiz-adv-x="0" 
 />
    <glyph glyph-name="nonmarkingreturn" horiz-adv-x="681" 
 />
    <glyph glyph-name="space" unicode=" " horiz-adv-x="1024" 
 />
    <glyph glyph-name="exclam" unicode="!" horiz-adv-x="1024" 
d="M1024 2304v-2304h-768v256h-256v2048h256v256h512v-256h256zM256 1024h256v1280h-256v-1280zM256 512h256v256h-256v-256z" />
    <glyph glyph-name="quotedbl" unicode="&#x22;" horiz-adv-x="1536" 
d="M1536 2304v-1024h-1280v256h-256v768h256v256h1024v-256h256zM768 1792h256v512h-256v-512zM256 1792h256v512h-256v-512z" />
    <glyph glyph-name="numbersign" unicode="#" 
d="M2048 1536v-1024h-256v-256h-256v-256h-1024v256h-256v256h-256v1024h256v256h256v256h1024v-256h256v-256h256zM1280 768h256v256h-256v256h256v256h-256v256h-256v-256h-256v256h-256v-256h-256v-256h256v-256h-256v-256h256v-256h256v256h256v-256h256v256zM1024 1280
v-256h-256v256h256z" />
    <glyph glyph-name="dollar" unicode="$" 
d="M2048 1280v-1024h-256v-256h-512v-256h-512v256h-512v256h-256v512h256v256h-256v1024h256v256h256v256h256v256h512v-256h512v-256h256v-768h-256v-256h256zM1024 2048h512v256h-512v256h-256v-256h-256v-256h256v-512h-256v-256h256v-512h-512v-256h512v-256h256v256
h256v256h256v512h-256v-512h-256v512h256v256h-256v512zM256 2048v-512h256v512h-256z" />
    <glyph glyph-name="percent" unicode="%" 
 />
    <glyph glyph-name="ampersand" unicode="&#x26;" 
d="M2048 768v-768h-1536v256h-256v256h-256v1536h256v256h256v256h768v-256h256v-512h256v-256h256v-512h-256v-256h256zM1280 1280h256v256h-256v256h-256v-256h-512v-256h512v-512h256v512zM1280 512h256v256h-256v-256zM512 512h512v256h-512v512h-256v-512h256v-256z
M512 2304v-256h512v256h-512zM256 2048v-512h256v512h-256z" />
    <glyph glyph-name="quotesingle" unicode="'" horiz-adv-x="1024" 
d="M1024 2304v-1024h-768v256h-256v768h256v256h512v-256h256zM256 1792h256v512h-256v-512z" />
    <glyph glyph-name="parenleft" unicode="(" horiz-adv-x="1280" 
d="M1280 768v-768h-768v256h-256v256h-256v1536h256v256h256v256h512v-256h256v-512h-256v-1024h256zM512 512h256v256h-256v1280h256v256h-256v-256h-256v-1280h256v-256z" />
    <glyph glyph-name="parenright" unicode=")" horiz-adv-x="1280" 
d="M1280 2048v-1536h-256v-256h-256v-256h-512v256h-256v512h256v1024h-256v512h256v256h512v-256h256v-256h256zM256 512h256v256h256v1280h-256v256h-256v-256h256v-1280h-256v-256z" />
    <glyph glyph-name="asterisk" unicode="*" 
d="M2048 1536v-1024h-256v-256h-256v-256h-768v256h-512v256h-256v1024h256v256h512v256h512v-256h512v-256h256zM1280 768h256v256h-256v-256zM256 768h256v256h256v-512h256v512h256v256h256v256h-256v-256h-256v512h-256v-512h-256v-256h-256v-256zM256 1536v-256h256
v256h-256z" />
    <glyph glyph-name="plus" unicode="+" horiz-adv-x="1536" 
d="M1536 1536v-512h-256v-256h-256v-256h-512v256h-256v256h-256v512h256v256h256v256h512v-256h256v-256h256zM768 1280h256v256h-256v256h-256v-256h-256v-256h256v-256h256v256z" />
    <glyph glyph-name="comma" unicode="," horiz-adv-x="1024" 
d="M1024 768v-768h-256v-256h-256v-256h-512v256h-256v512h256v512h256v256h512v-256h256zM0 0h256v256h256v512h-256v-512h-256v-256z" />
    <glyph glyph-name="hyphen" unicode="-" horiz-adv-x="1536" 
d="M1536 1536v-768h-1280v256h-256v512h256v256h1024v-256h256zM256 1280h768v256h-768v-256z" />
    <glyph glyph-name="period" unicode="." horiz-adv-x="1024" 
d="M1024 768v-768h-768v256h-256v512h256v256h512v-256h256zM256 512h256v256h-256v-256z" />
    <glyph glyph-name="slash" unicode="/" horiz-adv-x="1792" 
d="M1792 2560v-768h-256v-512h-256v-512h-256v-768h-768v256h-256v768h256v512h256v512h256v512h256v256h512v-256h256zM256 512h256v512h256v512h256v512h256v512h-256v-512h-256v-512h-256v-512h-256v-512z" />
    <glyph glyph-name="zero" unicode="0" 
d="M2048 2048v-1792h-256v-256h-1280v256h-256v256h-256v1536h256v256h256v256h1024v-256h256v-256h256zM768 1280h256v256h-256v-256zM512 512h768v256h256v1280h-256v256h-768v-256h768v-1280h-768v1280h-256v-1280h256v-256z" />
    <glyph glyph-name="one" unicode="1" horiz-adv-x="1280" 
d="M1280 2304v-2304h-768v256h-256v1280h-256v512h256v256h256v256h512v-256h256zM512 512h256v1792h-256v-256h-256v-256h256v-1280z" />
    <glyph glyph-name="two" unicode="2" 
d="M2048 768v-768h-1792v256h-256v768h256v256h256v512h-512v512h256v256h1280v-256h256v-256h256v-512h-256v-256h-256v-256h256v-256h256zM256 512h1280v256h-1024v256h512v256h256v256h256v512h-256v-512h-256v-256h-512v-256h-256v-512zM256 2304v-256h1024v256h-1024z
" />
    <glyph glyph-name="three" unicode="3" 
d="M2048 1280v-768h-256v-256h-256v-256h-1280v256h-256v512h256v256h256v512h-256v256h-256v512h256v256h1280v-256h256v-256h256v-512h-256v-256h256zM256 512h1024v256h256v512h-256v256h256v512h-256v-512h-512v-256h512v-512h-1024v-256zM256 2304v-256h1024v256h-1024
z" />
    <glyph glyph-name="four" unicode="4" 
d="M2048 2304v-2304h-768v256h-256v512h-768v256h-256v1280h256v256h512v-256h512v256h512v-256h256zM1280 512h256v1792h-256v-768h-768v768h-256v-1024h1024v-768z" />
    <glyph glyph-name="five" unicode="5" 
d="M2048 1280v-768h-256v-256h-256v-256h-1280v256h-256v512h256v256h-256v1536h1792v-256h256v-512h-512v-256h256v-256h256zM512 2048h1024v256h-1280v-1024h1024v256h-768v512zM256 512h1024v256h256v512h-256v-512h-1024v-256z" />
    <glyph glyph-name="six" unicode="6" 
d="M2048 1280v-768h-256v-256h-256v-256h-1024v256h-256v256h-256v1536h256v256h256v256h1024v-256h256v-512h-512v-256h512v-256h256zM512 512h768v256h256v512h-256v-512h-768v512h768v256h-768v512h768v256h-768v-256h-256v-1280h256v-256z" />
    <glyph glyph-name="seven" unicode="7" horiz-adv-x="1792" 
d="M1792 2304v-768h-256v-256h-256v-512h-256v-768h-768v256h-256v768h256v512h256v256h-768v512h256v256h1536v-256h256zM256 512h256v512h256v512h256v256h256v512h-1280v-256h1024v-256h-256v-256h-256v-512h-256v-512z" />
    <glyph glyph-name="eight" unicode="8" 
d="M2048 1280v-768h-256v-256h-256v-256h-1024v256h-256v256h-256v1536h256v256h256v256h1024v-256h256v-256h256v-512h-256v-256h256zM512 512h768v256h256v512h-256v-512h-768v-256zM512 2304v-256h768v-512h256v512h-256v256h-768zM1280 1536h-768v-256h768v256z
M256 2048v-512h256v512h-256zM512 1280h-256v-512h256v512z" />
    <glyph glyph-name="nine" unicode="9" 
d="M2048 2048v-1536h-256v-256h-256v-256h-1024v256h-256v512h256v256h-256v256h-256v768h256v256h256v256h1024v-256h256v-256h256zM512 512h768v256h256v1280h-256v256h-768v-256h768v-512h-768v-256h768v-512h-768v-256zM256 2048v-512h256v512h-256z" />
    <glyph glyph-name="colon" unicode=":" horiz-adv-x="1024" 
d="M1024 1536v-1280h-768v256h-256v1024h256v256h512v-256h256zM256 1280h256v256h-256v-256zM256 768h256v256h-256v-256z" />
    <glyph glyph-name="semicolon" unicode=";" horiz-adv-x="1024" 
d="M1024 1280v-1280h-256v-256h-256v-256h-512v256h-256v512h256v1024h256v256h512v-256h256zM256 1024h256v256h-256v-256zM0 0h256v256h256v512h-256v-512h-256v-256z" />
    <glyph glyph-name="less" unicode="&#x3c;" horiz-adv-x="1536" 
d="M1536 768v-768h-768v256h-256v256h-256v256h-256v512h256v256h256v256h256v256h512v-256h256v-512h-256v-512h256zM768 512h256v256h-256v256h-256v256h256v256h256v256h-256v-256h-256v-256h-256v-256h256v-256h256v-256z" />
    <glyph glyph-name="equal" unicode="=" horiz-adv-x="1536" 
d="M1536 1792v-1280h-1280v256h-256v1024h256v256h1024v-256h256zM256 1536h768v256h-768v-256zM256 1024h768v256h-768v-256z" />
    <glyph glyph-name="greater" unicode="&#x3e;" horiz-adv-x="1536" 
d="M1536 1280v-512h-256v-256h-256v-256h-256v-256h-512v256h-256v512h256v512h-256v512h256v256h512v-256h256v-256h256v-256h256zM256 512h256v256h256v256h256v256h-256v256h-256v256h-256v-256h256v-256h256v-256h-256v-256h-256v-256z" />
    <glyph glyph-name="question" unicode="?" horiz-adv-x="2304" 
d="M2304 2048v-768h-256v-256h-256v-1024h-768v256h-256v1024h-512v256h-256v512h256v256h256v256h1280v-256h256v-256h256zM256 1792h256v256h1024v-512h256v512h-256v256h-1024v-256h-256v-256zM1024 1024h256v256h256v256h-256v-256h-256v-256zM1024 512h256v256h-256
v-256z" />
    <glyph glyph-name="at" unicode="@" horiz-adv-x="2560" 
d="M2560 1792v-2048h-1792v256h-256v256h-256v256h-256v1024h256v256h256v256h256v256h1280v-256h256v-256h256zM1280 768h768v1024h-256v256h-1024v-256h1024v-256h-512v-256h512v-256h-512v-256zM768 256h1280v256h-1280v-256zM512 1792v-256h256v256h-256zM1280 1280
h-256v-256h256v256zM256 1536v-768h256v768h-256zM512 768v-256h256v256h-256z" />
    <glyph glyph-name="A" unicode="A" 
d="M2048 2048v-2048h-768v256h-256v-256h-768v256h-256v1792h256v256h256v256h1024v-256h256v-256h256zM1280 512h256v1536h-256v256h-768v-256h768v-512h-768v512h-256v-1536h256v768h768v-768z" />
    <glyph glyph-name="B" unicode="B" 
d="M2048 2048v-1792h-256v-256h-1536v256h-256v2048h256v256h1280v-256h256v-256h256zM256 512h1024v256h256v512h-256v-512h-768v512h768v256h256v512h-256v-512h-768v512h768v256h-1024v-1792z" />
    <glyph glyph-name="C" unicode="C" 
d="M2048 768v-768h-1536v256h-256v256h-256v1536h256v256h256v256h1280v-256h256v-768h-768v-512h512v-256h256zM512 512h1024v256h-1024v1280h1024v256h-1024v-256h-256v-1280h256v-256z" />
    <glyph glyph-name="D" unicode="D" 
d="M2048 2048v-1792h-256v-256h-1536v256h-256v2048h256v256h1280v-256h256v-256h256zM256 512h1024v256h256v1280h-256v-1280h-768v1280h768v256h-1024v-1792z" />
    <glyph glyph-name="E" unicode="E" horiz-adv-x="1792" 
d="M1792 768v-768h-1536v256h-256v2048h256v256h1280v-256h256v-512h-256v-256h256v-512h-256v-256h256zM256 512h1024v256h-768v512h768v256h-768v512h768v256h-1024v-1792z" />
    <glyph glyph-name="F" unicode="F" horiz-adv-x="1792" 
d="M1792 1536v-768h-768v-768h-768v256h-256v2048h256v256h1280v-256h256v-512h-256v-256h256zM512 1280h768v256h-768v512h768v256h-1024v-1792h256v768z" />
    <glyph glyph-name="G" unicode="G" 
d="M2048 2304v-2048h-256v-256h-1280v256h-256v256h-256v1536h256v256h256v256h1280v-256h256zM512 512h768v256h256v768h-512v-256h256v-512h-768v1280h1024v256h-1024v-256h-256v-1280h256v-256z" />
    <glyph glyph-name="H" unicode="H" 
d="M2048 2304v-2304h-768v256h-256v-256h-768v256h-256v2048h256v256h512v-256h512v256h512v-256h256zM1280 512h256v1792h-256v-768h-768v768h-256v-1792h256v768h768v-768z" />
    <glyph glyph-name="I" unicode="I" horiz-adv-x="1024" 
d="M1024 2304v-2304h-768v256h-256v2048h256v256h512v-256h256zM256 512h256v1792h-256v-1792z" />
    <glyph glyph-name="J" unicode="J" 
d="M2048 2304v-2048h-256v-256h-1280v256h-256v256h-256v768h256v256h512v-256h256v1024h256v256h512v-256h256zM512 512h768v256h256v1536h-256v-1536h-768v-256zM256 1280v-512h256v512h-256z" />
    <glyph glyph-name="K" unicode="K" 
d="M2048 2304v-2304h-768v256h-256v-256h-768v256h-256v2048h256v256h512v-256h512v256h512v-256h256zM1280 512h256v768h-256v-768zM1280 2304v-768h256v768h-256zM256 2304v-1792h256v768h768v256h-768v768h-256z" />
    <glyph glyph-name="L" unicode="L" horiz-adv-x="1792" 
d="M1792 768v-768h-1536v256h-256v2048h256v256h512v-256h256v-1280h512v-256h256zM256 512h1024v256h-768v1536h-256v-1792z" />
    <glyph glyph-name="M" unicode="M" horiz-adv-x="2560" 
d="M2560 2304v-2304h-768v256h-256v512h-512v-768h-768v256h-256v2048h256v256h512v-256h256v-256h512v256h256v256h512v-256h256zM1792 512h256v1792h-256v-256h-256v-256h256v-1280zM1024 1280h256v256h256v256h-256v-256h-256v256h-256v-256h256v-256zM256 2304v-1792
h256v1280h256v256h-256v256h-256z" />
    <glyph glyph-name="N" unicode="N" 
d="M2048 2304v-2304h-768v256h-256v-256h-768v256h-256v2048h256v256h512v-256h512v256h512v-256h256zM1280 512h256v1792h-256v-768h-256v-256h256v-768zM1024 1536v256h-256v-256h256zM256 2304v-1792h256v1280h256v256h-256v256h-256z" />
    <glyph glyph-name="O" unicode="O" 
d="M2048 2048v-1792h-256v-256h-1280v256h-256v256h-256v1536h256v256h256v256h1024v-256h256v-256h256zM512 512h768v256h256v1280h-256v256h-768v-256h768v-1280h-768v1280h-256v-1280h256v-256z" />
    <glyph glyph-name="P" unicode="P" 
d="M2048 2048v-768h-256v-256h-256v-256h-512v-768h-768v256h-256v2048h256v256h1280v-256h256v-256h256zM512 1280h768v256h256v512h-256v-512h-768v512h768v256h-1024v-1792h256v768z" />
    <glyph glyph-name="Q" unicode="Q" 
d="M2048 512v-768h-768v256h-768v256h-256v256h-256v1536h256v256h256v256h1024v-256h256v-256h256v-1280h-256v-256h256zM1280 256h256v256h-256v-256zM512 2304v-256h768v256h-768zM1280 2048v-1280h256v1280h-256zM256 2048v-1280h256v1280h-256zM512 768v-256h768v256
h-768z" />
    <glyph glyph-name="R" unicode="R" 
d="M2048 1280v-1280h-768v256h-256v-256h-768v256h-256v2048h256v256h1280v-256h256v-256h256v-512h-256v-256h256zM1280 512h256v768h-256v-768zM256 2304v-1792h256v768h768v256h256v512h-256v-512h-768v512h768v256h-1024z" />
    <glyph glyph-name="S" unicode="S" 
d="M2048 1280v-1024h-256v-256h-1536v256h-256v512h256v512h-256v768h256v256h256v256h1280v-256h256v-768h-256v-256h256zM256 512h1024v256h256v512h-256v-512h-1024v-256zM512 2304v-256h1024v256h-1024zM1280 1280v256h-768v-256h768zM256 2048v-512h256v512h-256z" />
    <glyph glyph-name="T" unicode="T" 
d="M2048 2304v-768h-512v-1536h-768v256h-256v1280h-256v256h-256v512h256v256h1536v-256h256zM1024 2048h512v256h-1280v-256h512v-1536h256v1536z" />
    <glyph glyph-name="U" unicode="U" 
d="M2048 2304v-2048h-256v-256h-1280v256h-256v256h-256v1792h256v256h512v-256h512v256h512v-256h256zM512 512h768v256h256v1536h-256v-1536h-768v1536h-256v-1536h256v-256z" />
    <glyph glyph-name="V" unicode="V" horiz-adv-x="2304" 
d="M2304 2304v-1024h-256v-768h-256v-256h-256v-256h-768v256h-256v256h-256v768h-256v1024h256v256h512v-256h256v-512h256v512h256v256h512v-256h256zM768 512h512v256h256v768h256v768h-256v-768h-256v-768h-512v768h-256v768h-256v-768h256v-768h256v-256z" />
    <glyph glyph-name="W" unicode="W" horiz-adv-x="2560" 
d="M2560 2304v-2048h-256v-256h-768v256h-256v-256h-768v256h-256v256h-256v1792h256v256h512v-256h256v-768h512v768h256v256h512v-256h256zM1536 512h256v256h256v1536h-256v-1536h-256v256h-256v256h-256v-256h256v-256h256v-256zM512 512h256v256h256v256h-256v-256
h-256v1536h-256v-1536h256v-256z" />
    <glyph glyph-name="X" unicode="X" horiz-adv-x="2304" 
d="M2304 1024v-1024h-768v256h-256v256h-256v-256h-256v-256h-512v256h-256v768h256v512h-256v768h256v256h512v-256h256v-256h256v256h256v256h512v-256h256v-768h-256v-512h256zM1536 512h256v512h-256v256h-256v-256h256v-512zM256 512h256v512h256v256h512v256h256v256
h256v512h-256v-512h-256v-256h-512v-256h-256v-256h-256v-512zM256 2304v-512h256v512h-256zM512 1792v-256h256v256h-256z" />
    <glyph glyph-name="Y" unicode="Y" horiz-adv-x="2560" 
d="M2560 2304v-768h-256v-256h-256v-256h-256v-1024h-768v256h-256v768h-256v256h-256v256h-256v768h256v256h512v-256h256v-256h256v-256h256v512h256v256h512v-256h256zM1280 1280h256v256h256v256h256v512h-256v-512h-256v-256h-768v256h-256v512h-256v-512h256v-256h256
v-256h256v-768h256v768z" />
    <glyph glyph-name="Z" unicode="Z" 
d="M2048 768v-768h-1792v256h-256v768h256v256h256v512h-512v512h256v256h1536v-256h256v-768h-256v-256h-256v-256h256v-256h256zM256 512h1280v256h-1024v256h256v256h256v256h256v256h256v512h-1280v-256h1024v-256h-256v-256h-256v-256h-256v-256h-256v-512z" />
    <glyph glyph-name="bracketleft" unicode="[" horiz-adv-x="1280" 
d="M1280 768v-768h-1024v256h-256v2304h1024v-256h256v-512h-256v-1024h256zM256 512h512v256h-256v1280h256v256h-512v-1792z" />
    <glyph glyph-name="backslash" unicode="\" horiz-adv-x="1792" 
d="M1792 1024v-1024h-768v256h-256v512h-256v512h-256v512h-256v768h256v256h512v-256h256v-512h256v-512h256v-512h256zM1024 512h256v512h-256v512h-256v512h-256v512h-256v-512h256v-512h256v-512h256v-512z" />
    <glyph glyph-name="bracketright" unicode="]" horiz-adv-x="1280" 
d="M1280 2304v-2304h-1024v256h-256v512h256v1024h-256v512h256v256h768v-256h256zM256 512h512v1792h-512v-256h256v-1280h-256v-256z" />
    <glyph glyph-name="asciicircum" unicode="^" horiz-adv-x="1536" 
d="M1536 2048v-768h-1280v256h-256v512h256v256h256v256h512v-256h256v-256h256zM768 1792h256v256h-256v256h-256v-256h256v-256zM256 1792h256v256h-256v-256z" />
    <glyph glyph-name="underscore" unicode="_" horiz-adv-x="1792" 
d="M1792 768v-768h-1536v256h-256v512h256v256h1280v-256h256zM256 512h1024v256h-1024v-256z" />
    <glyph glyph-name="grave" unicode="`" horiz-adv-x="1280" 
d="M1280 2048v-768h-768v256h-256v256h-256v512h256v256h512v-256h256v-256h256zM512 1792h256v256h-256v256h-256v-256h256v-256z" />
    <glyph glyph-name="a" unicode="a" 
d="M2048 1792v-1792h-1536v256h-256v256h-256v512h256v256h256v256h-256v256h256v256h1280v-256h256zM512 512h1024v1024h-256v256h-768v-256h768v-256h-768v-256h768v-256h-768v-256zM256 1024v-256h256v256h-256z" />
    <glyph glyph-name="b" unicode="b" 
d="M2048 1536v-1024h-256v-256h-256v-256h-1280v256h-256v2048h256v256h512v-256h512v-256h256v-256h256v-256h256zM256 512h1024v256h256v768h-256v-768h-768v768h768v256h-768v512h-256v-1792z" />
    <glyph glyph-name="c" unicode="c" horiz-adv-x="1792" 
d="M1792 768v-768h-1280v256h-256v256h-256v1024h256v256h256v256h1024v-256h256v-512h-512v-256h256v-256h256zM512 512h768v256h-768v768h768v256h-768v-256h-256v-768h256v-256z" />
    <glyph glyph-name="d" unicode="d" 
d="M2048 2304v-2304h-1536v256h-256v256h-256v1024h256v256h256v256h512v256h256v256h512v-256h256zM512 512h1024v1792h-256v-512h-768v-256h768v-768h-768v-256zM256 1536v-768h256v768h-256z" />
    <glyph glyph-name="e" unicode="e" 
d="M2048 1536v-1536h-1536v256h-256v256h-256v1024h256v256h256v256h1024v-256h256v-256h256zM512 1024h1024v512h-256v256h-768v-256h768v-256h-768v256h-256v-768h256v256zM512 512h1024v256h-1024v-256z" />
    <glyph glyph-name="f" unicode="f" horiz-adv-x="1792" 
d="M1792 2304v-1280h-512v-1024h-768v256h-256v1024h-256v512h256v256h256v256h256v256h768v-256h256zM768 1536h512v256h-512v256h512v256h-512v-256h-256v-256h-256v-256h256v-1024h256v1024z" />
    <glyph glyph-name="g" unicode="g" 
d="M2048 1792v-2048h-256v-256h-256v-256h-1280v256h-256v512h256v512h-256v1024h256v256h256v256h1280v-256h256zM256 -256h1024v256h256v1792h-1024v-256h768v-768h-768v-256h768v-512h-1024v-256zM256 1536v-768h256v768h-256z" />
    <glyph glyph-name="h" unicode="h" 
d="M2048 1536v-1536h-768v256h-512v-256h-512v256h-256v2048h256v256h512v-256h256v-256h512v-256h256v-256h256zM1280 512h256v1024h-256v-1024zM256 2304v-1792h256v1024h768v256h-768v512h-256z" />
    <glyph glyph-name="i" unicode="i" horiz-adv-x="1024" 
d="M1024 2304v-2304h-768v256h-256v2048h256v256h512v-256h256zM256 2048h256v256h-256v-256zM256 512h256v1280h-256v-1280z" />
    <glyph glyph-name="j" unicode="j" horiz-adv-x="1024" 
d="M1024 2304v-2560h-256v-256h-256v-256h-512v256h-256v512h256v2304h256v256h512v-256h256zM256 2048h256v256h-256v-256zM0 -256h256v256h256v1792h-256v-1792h-256v-256z" />
    <glyph glyph-name="k" unicode="k" 
d="M2048 1024v-1024h-768v256h-512v-256h-512v256h-256v2048h256v256h512v-256h256v-256h256v256h512v-256h256v-512h-256v-512h256zM1280 512h256v512h-256v256h-256v-256h256v-512zM1280 2048v-256h256v256h-256zM1280 1792h-256v-256h256v256zM256 2304v-1792h256v768
h512v256h-512v768h-256z" />
    <glyph glyph-name="l" unicode="l" horiz-adv-x="1024" 
d="M1024 2304v-2304h-768v256h-256v2048h256v256h512v-256h256zM256 512h256v1792h-256v-1792z" />
    <glyph glyph-name="m" unicode="m" horiz-adv-x="2560" 
d="M2560 1536v-1536h-768v256h-256v-256h-512v256h-256v-256h-512v256h-256v1536h256v256h1792v-256h256v-256h256zM1792 512h256v1024h-256v256h-512v-256h512v-1024zM1024 512h256v1024h-256v-1024zM256 1792v-1280h256v1024h512v256h-768z" />
    <glyph glyph-name="n" unicode="n" 
d="M2048 1536v-1536h-768v256h-512v-256h-512v256h-256v1536h256v256h1280v-256h256v-256h256zM1280 512h256v1024h-256v-1024zM256 1792v-1280h256v1024h768v256h-1024z" />
    <glyph glyph-name="o" unicode="o" 
d="M2048 1536v-1024h-256v-256h-256v-256h-1024v256h-256v256h-256v1024h256v256h256v256h1024v-256h256v-256h256zM512 512h768v256h256v768h-256v256h-768v-256h768v-768h-768v768h-256v-768h256v-256z" />
    <glyph glyph-name="p" unicode="p" 
d="M2048 1536v-1024h-256v-256h-512v-256h-256v-768h-768v256h-256v2304h256v256h1280v-256h256v-256h256zM512 512h768v256h256v768h-256v-768h-768v768h768v256h-1024v-2048h256v768z" />
    <glyph glyph-name="q" unicode="q" 
d="M2048 1792v-2560h-768v256h-256v512h-512v256h-256v256h-256v1024h256v256h256v256h1280v-256h256zM1280 -256h256v2048h-1024v-256h768v-768h-768v-256h768v-768zM256 1536v-768h256v768h-256z" />
    <glyph glyph-name="r" unicode="r" horiz-adv-x="1536" 
d="M1536 1792v-512h-512v-1280h-768v256h-256v1280h256v256h256v256h768v-256h256zM256 512h256v1024h512v256h-512v-256h-256v-1024z" />
    <glyph glyph-name="s" unicode="s" 
d="M2048 1024v-512h-256v-256h-256v-256h-1280v256h-256v512h256v256h-256v512h256v256h256v256h1280v-256h256v-512h-256v-256h256zM256 512h1024v256h256v256h-256v-256h-1024v-256zM512 1792v-256h1024v256h-1024zM1280 1024v256h-768v-256h768zM256 1536v-256h256v256
h-256z" />
    <glyph glyph-name="t" unicode="t" horiz-adv-x="1536" 
d="M1536 768v-768h-768v256h-256v256h-256v768h-256v512h256v512h256v256h512v-256h256v-512h256v-512h-256v-512h256zM768 1536h256v256h-256v512h-256v-512h-256v-256h256v-768h256v768zM768 512h256v256h-256v-256z" />
    <glyph glyph-name="u" unicode="u" 
d="M2048 1792v-1536h-256v-256h-1280v256h-256v256h-256v1280h256v256h512v-256h512v256h512v-256h256zM512 512h768v256h256v1024h-256v-1024h-768v1024h-256v-1024h256v-256z" />
    <glyph glyph-name="v" unicode="v" 
d="M2048 1792v-1024h-256v-256h-256v-256h-256v-256h-512v256h-256v256h-256v256h-256v1024h256v256h512v-256h512v256h512v-256h256zM768 512h256v256h256v256h256v768h-256v-768h-256v-256h-256v256h-256v768h-256v-768h256v-256h256v-256z" />
    <glyph glyph-name="w" unicode="w" horiz-adv-x="2560" 
d="M2560 1792v-1280h-256v-256h-256v-256h-512v256h-512v-256h-512v256h-256v256h-256v1280h256v256h512v-256h1024v256h512v-256h256zM1536 512h256v256h256v1024h-256v-1024h-256v256h-256v512h-256v-512h256v-256h256v-256zM512 512h256v256h256v256h-256v-256h-256v1024
h-256v-1024h256v-256z" />
    <glyph glyph-name="x" unicode="x" 
d="M2048 768v-512h-256v-256h-512v256h-512v-256h-512v256h-256v512h256v512h-256v512h256v256h512v-256h512v256h512v-256h256v-512h-256v-512h256zM1280 512h256v256h-256v256h-256v256h256v256h256v256h-256v-256h-256v-256h-256v256h-256v256h-256v-256h256v-256h256
v-256h256v-256h256v-256zM256 512h256v256h256v256h-256v-256h-256v-256z" />
    <glyph glyph-name="y" unicode="y" 
d="M2048 1792v-2048h-256v-256h-256v-256h-1024v256h-256v512h256v256h-256v256h-256v1280h256v256h512v-256h512v256h512v-256h256zM512 -256h768v256h256v1792h-256v-1024h-768v-256h768v-512h-768v-256zM256 1792v-1024h256v1024h-256z" />
    <glyph glyph-name="z" unicode="z" 
d="M2048 768v-768h-1792v256h-256v768h256v256h-256v512h256v256h1536v-256h256v-512h-256v-512h256zM256 512h1280v256h-1024v256h768v256h256v512h-1280v-256h1024v-256h-768v-256h-256v-512z" />
    <glyph glyph-name="braceleft" unicode="{" horiz-adv-x="1536" 
d="M1536 768v-768h-768v256h-256v256h-256v512h-256v512h256v512h256v256h256v256h512v-256h256v-512h-256v-1024h256zM768 512h256v256h-256v512h-256v256h256v512h256v256h-256v-256h-256v-512h-256v-256h256v-512h256v-256z" />
    <glyph glyph-name="bar" unicode="|" horiz-adv-x="1024" 
d="M1024 2560v-2560h-768v256h-256v2304h256v256h512v-256h256zM256 512h256v2048h-256v-2048z" />
    <glyph glyph-name="braceright" unicode="}" horiz-adv-x="1536" 
d="M1536 1536v-512h-256v-512h-256v-256h-256v-256h-512v256h-256v512h256v1024h-256v512h256v256h512v-256h256v-256h256v-512h256zM256 512h256v256h256v512h256v256h-256v512h-256v256h-256v-256h256v-512h256v-256h-256v-512h-256v-256z" />
    <glyph glyph-name="asciitilde" unicode="~" horiz-adv-x="1792" 
d="M1792 2304v-512h-256v-256h-256v-256h-1024v256h-256v512h256v256h256v256h1024v-256h256zM768 1792h256v256h256v256h-256v-256h-256v256h-256v-256h256v-256zM256 1792h256v256h-256v-256z" />
    <glyph glyph-name="DEL" horiz-adv-x="1024" 
 />
    <glyph glyph-name="nbspace" unicode="&#xa0;" horiz-adv-x="1024" 
 />
    <glyph glyph-name="exclamdown" unicode="&#xa1;" horiz-adv-x="1024" 
d="M1024 2304v-2304h-768v256h-256v2048h256v256h512v-256h256zM256 2048h256v256h-256v-256zM256 512h256v1280h-256v-1280z" />
    <glyph glyph-name="brokenbar" unicode="&#xa6;" horiz-adv-x="1024" 
d="M1024 2304v-2304h-768v256h-256v2048h256v256h512v-256h256zM256 1536h256v768h-256v-768zM256 512h256v768h-256v-768z" />
    <glyph glyph-name="dieresis" unicode="&#xa8;" horiz-adv-x="1536" 
d="M1536 2304v-768h-1280v256h-256v512h256v256h1024v-256h256zM768 2048h256v256h-256v-256zM256 2048h256v256h-256v-256z" />
    <glyph glyph-name="copyright" unicode="&#xa9;" horiz-adv-x="1536" 
d="M1536 1536v-768h-1024v256h-256v256h-256v768h256v256h256v256h768v-256h256v-512h-256v-256h256zM512 1280h512v256h-512v512h512v256h-512v-256h-256v-512h256v-256z" />
    <glyph glyph-name="guillemotleft" unicode="&#xab;" horiz-adv-x="1792" 
d="M1792 1280v-1280h-1280v256h-256v256h-256v512h256v256h256v256h1024v-256h256zM1024 512h256v256h-256v-256zM512 512h256v256h256v256h256v256h-256v-256h-256v256h-256v-256h256v-256h-256v256h-256v-256h256v-256z" />
    <glyph glyph-name="logicalnot" unicode="&#xac;" horiz-adv-x="1536" 
d="M1536 1536v-1024h-768v256h-512v256h-256v512h256v256h1024v-256h256zM768 1024h256v512h-768v-256h512v-256z" />
    <glyph glyph-name="registered" unicode="&#xae;" horiz-adv-x="1536" 
d="M1536 2304v-1536h-1280v256h-256v1280h256v256h1024v-256h256zM768 1280h256v256h-256v256h-256v256h256v-256h256v512h-768v-1024h256v256h256v-256z" />
    <glyph glyph-name="macron" unicode="&#xaf;" horiz-adv-x="1536" 
d="M1536 2304v-768h-1280v256h-256v512h256v256h1024v-256h256zM256 2048h768v256h-768v-256z" />
    <glyph glyph-name="degree" unicode="&#xb0;" horiz-adv-x="1536" 
d="M1536 2304v-1024h-256v-256h-1024v256h-256v1024h256v256h1024v-256h256zM256 1536h768v768h-768v-768zM768 2048v-256h-256v256h256z" />
    <glyph glyph-name="plusminus" unicode="&#xb1;" horiz-adv-x="1536" 
d="M1536 1536v-1536h-1280v256h-256v1280h256v256h256v256h512v-256h256v-256h256zM768 1280h256v256h-256v256h-256v-256h-256v-256h256v-256h256v256zM256 512h768v256h-768v-256z" />
    <glyph glyph-name="twosuperior" unicode="&#xb2;" horiz-adv-x="1280" 
d="M1280 1792v-768h-1280v256h-256v768h256v256h-256v512h256v256h768v-256h256v-256h256v-512h-256v-256h256zM0 1536h768v256h-512v256h256v256h256v256h-256v-256h-256v-256h-256v-512zM0 2816v-256h512v256h-512z" />
    <glyph glyph-name="threesuperior" unicode="&#xb3;" horiz-adv-x="1280" 
d="M1280 2560v-1024h-256v-256h-256v-256h-768v256h-256v512h256v512h-256v512h256v256h768v-256h256v-256h256zM0 1536h512v256h256v256h-256v256h256v256h-256v-256h-256v-256h256v-256h-512v-256zM0 2816v-256h512v256h-512z" />
    <glyph glyph-name="acute" unicode="&#xb4;" horiz-adv-x="1280" 
d="M1280 2304v-512h-256v-256h-256v-256h-512v256h-256v512h256v256h256v256h512v-256h256zM256 1792h256v256h256v256h-256v-256h-256v-256z" />
    <glyph glyph-name="paragraph" unicode="&#xb6;" 
d="M2048 2304v-2304h-1280v256h-256v512h-256v256h-256v1024h256v256h256v256h1280v-256h256zM1280 512h256v1792h-1024v-256h256v-768h-256v-256h256v-512h256v512h256v-512zM1280 2048v-768h-256v768h256zM256 2048v-768h256v768h-256z" />
    <glyph glyph-name="periodcentered" unicode="&#xb7;" horiz-adv-x="1024" 
d="M1024 1536v-768h-768v256h-256v512h256v256h512v-256h256zM256 1280h256v256h-256v-256z" />
    <glyph glyph-name="cedilla" unicode="&#xb8;" 
d="M1280 512v-512h-256v-256h-256v-256h-512v256h-256v512h256v256h256v256h512v-256h256zM256 0h256v256h256v256h-256v-256h-256v-256z" />
    <glyph glyph-name="onesuperior" unicode="&#xb9;" horiz-adv-x="1024" 
d="M1024 2816v-1792h-768v256h-256v768h-256v512h256v256h256v256h512v-256h256zM256 1536h256v1280h-256v-256h-256v-256h256v-768z" />
    <glyph glyph-name="guillemotright" unicode="&#xbb;" horiz-adv-x="1792" 
d="M1792 1024v-512h-256v-256h-256v-256h-1024v256h-256v1024h256v256h1024v-256h256v-256h256zM768 512h256v256h256v256h-256v256h-256v-256h256v-256h-256v256h-256v256h-256v-256h256v-256h256v-256zM256 512h256v256h-256v-256z" />
    <glyph glyph-name="onequarter" unicode="&#xbc;" horiz-adv-x="3328" 
d="M3328 1792v-1792h-768v256h-256v256h-512v256h-256v-768h-768v256h-256v1024h-256v768h-256v512h256v256h256v256h512v-256h256v-256h256v256h512v-768h256v-256h256v256h512v-256h256zM2560 512h256v1280h-256v-512h-512v512h-256v-768h768v-512zM512 1536h256v1280
h-256v-256h-256v-256h256v-768zM768 512h256v512h256v512h256v512h256v512h-256v-512h-256v-512h-256v-512h-256v-512z" />
    <glyph glyph-name="onehalf" unicode="&#xbd;" horiz-adv-x="3072" 
d="M3072 768v-768h-1280v256h-256v-256h-768v256h-256v1024h-256v768h-256v512h256v256h256v256h512v-256h256v-256h256v256h512v-256h256v-512h256v-256h256v-256h256v-512h-256v-256h256zM1792 512h768v256h-512v256h-256v-512zM512 1536h256v1280h-256v-256h-256v-256
h256v-768zM768 512h256v512h256v512h256v512h256v512h-256v-512h-256v-512h-256v-512h-256v-512zM2304 1536v-256h-256v-256h256v256h256v256h-256zM2304 1536v256h-512v-256h512z" />
    <glyph glyph-name="threequarters" unicode="&#xbe;" horiz-adv-x="3584" 
d="M3584 1792v-1792h-768v256h-256v256h-512v256h-256v-768h-768v256h-256v768h-512v256h-256v512h256v512h-256v512h256v256h768v-256h256v-256h512v256h512v-768h256v-256h256v256h512v-256h256zM2816 512h256v1280h-256v-512h-512v512h-256v-768h768v-512zM256 1536h512
v256h256v256h-256v256h256v256h-256v-256h-256v-256h256v-256h-512v-256zM1024 512h256v512h256v512h256v512h256v512h-256v-512h-256v-512h-256v-512h-256v-512zM256 2816v-256h512v256h-512z" />
    <glyph glyph-name="questiondown" unicode="&#xbf;" horiz-adv-x="2304" 
d="M2304 1024v-512h-256v-256h-256v-256h-1280v256h-256v256h-256v768h256v256h256v768h256v256h512v-256h256v-768h-256v-512h256v256h512v-256h256zM768 2048h256v256h-256v-256zM512 512h1024v256h256v256h-256v-256h-1024v-256zM512 1536v-256h256v256h256v256h-256
v-256h-256zM256 1280v-512h256v512h-256z" />
    <glyph glyph-name="Agrave" unicode="&#xc0;" 
d="M2048 2048v-2048h-768v256h-256v-256h-768v256h-256v1792h256v256h256v256h-256v512h256v256h512v-256h256v-256h256v-512h256v-256h256zM768 2560h256v256h-256v256h-256v-256h256v-256zM1280 512h256v1536h-256v256h-768v-256h768v-512h-768v512h-256v-1536h256v768
h768v-768z" />
    <glyph glyph-name="Aacute" unicode="&#xc1;" 
d="M2048 2048v-2048h-768v256h-256v-256h-768v256h-256v1792h256v256h256v512h256v256h256v256h512v-256h256v-512h-256v-256h256v-256h256zM768 2560h256v256h256v256h-256v-256h-256v-256zM1280 512h256v1536h-256v256h-768v-256h768v-512h-768v512h-256v-1536h256v768
h768v-768z" />
    <glyph glyph-name="Acircumflex" unicode="&#xc2;" 
d="M2048 2048v-2048h-768v256h-256v-256h-768v256h-256v1792h256v768h256v256h256v256h512v-256h256v-256h256v-768h256zM1024 2560h256v256h-256v256h-256v-256h256v-256zM512 2560h256v256h-256v-256zM1280 512h256v1536h-256v256h-768v-256h768v-512h-768v512h-256v-1536
h256v768h768v-768z" />
    <glyph glyph-name="Atilde" unicode="&#xc3;" 
d="M2048 2048v-2048h-768v256h-256v-256h-768v256h-256v1792h256v768h256v256h256v256h1024v-256h256v-512h-256v-512h256zM1024 2560h256v256h256v256h-256v-256h-256v256h-256v-256h256v-256zM512 2560h256v256h-256v-256zM1280 512h256v1536h-256v256h-768v-256h768v-512
h-768v512h-256v-1536h256v768h768v-768z" />
    <glyph glyph-name="Adieresis" unicode="&#xc4;" 
d="M2048 2048v-2048h-768v256h-256v-256h-768v256h-256v1792h256v768h256v256h1024v-256h256v-768h256zM1024 2560h256v256h-256v-256zM512 2560h256v256h-256v-256zM1280 512h256v1536h-256v256h-768v-256h768v-512h-768v512h-256v-1536h256v768h768v-768z" />
    <glyph glyph-name="Aring" unicode="&#xc5;" 
d="M2048 2048v-2048h-768v256h-256v-256h-768v256h-256v1792h256v256h256v256h-256v512h256v256h256v256h512v-256h256v-256h256v-512h-256v-256h256v-256h256zM768 2560h256v256h256v256h-256v256h-256v-256h256v-256h-256v256h-256v-256h256v-256zM1280 512h256v1536h-256
v256h-768v-256h768v-512h-768v512h-256v-1536h256v768h768v-768z" />
    <glyph glyph-name="AE" unicode="&#xc6;" horiz-adv-x="2816" 
d="M2816 2304v-2304h-1536v256h-256v-256h-768v256h-256v1792h256v256h256v256h768v-256h256v256h1024v-256h256zM1280 512h1024v256h-768v512h768v256h-768v512h768v256h-768v-256h-256v256h-768v-256h768v-512h-768v512h-256v-1536h256v768h768v-768z" />
    <glyph glyph-name="Ccedilla" unicode="&#xc7;" 
d="M2048 768v-768h-512v-256h-256v-256h-512v256h-256v512h-256v256h-256v1536h256v256h256v256h1280v-256h256v-768h-768v-512h512v-256h256zM1280 512h256v256h-1024v1280h1024v256h-1024v-256h-256v-1280h256v-256h512v-256h256v256zM768 0h256v256h-256v-256z" />
    <glyph glyph-name="Egrave" unicode="&#xc8;" horiz-adv-x="1792" 
d="M1792 768v-768h-1536v256h-256v2048h256v768h256v256h512v-256h256v-256h256v-512h256v-512h-256v-256h256v-512h-256v-256h256zM768 2560h256v256h-256v256h-256v-256h256v-256zM256 512h1024v256h-768v512h768v256h-768v512h768v256h-1024v-1792z" />
    <glyph glyph-name="Eacute" unicode="&#xc9;" horiz-adv-x="1792" 
d="M1792 768v-768h-1536v256h-256v2048h256v256h256v256h256v256h256v256h512v-256h256v-512h-256v-256h256v-512h-256v-256h256v-512h-256v-256h256zM768 2560h256v256h256v256h-256v-256h-256v-256zM256 512h1024v256h-768v512h768v256h-768v512h768v256h-1024v-1792z" />
    <glyph glyph-name="Ecircumflex" unicode="&#xca;" horiz-adv-x="1792" 
d="M1792 768v-768h-1536v256h-256v2048h256v512h256v256h256v256h512v-256h256v-256h256v-1024h-256v-256h256v-512h-256v-256h256zM1024 2560h256v256h-256v256h-256v-256h256v-256zM512 2560h256v256h-256v-256zM256 512h1024v256h-768v512h768v256h-768v512h768v256
h-1024v-1792z" />
    <glyph glyph-name="Edieresis" unicode="&#xcb;" horiz-adv-x="1792" 
d="M1792 768v-768h-1536v256h-256v2048h256v512h256v256h1024v-256h256v-1024h-256v-256h256v-512h-256v-256h256zM1024 2560h256v256h-256v-256zM512 2560h256v256h-256v-256zM256 512h1024v256h-768v512h768v256h-768v512h768v256h-1024v-1792z" />
    <glyph glyph-name="Igrave" unicode="&#xcc;" horiz-adv-x="1024" 
d="M1024 2816v-2816h-768v256h-256v2304h-256v512h256v256h512v-256h256v-256h256zM256 2560h256v256h-256v256h-256v-256h256v-256zM256 512h256v1792h-256v-1792z" />
    <glyph glyph-name="Iacute" unicode="&#xcd;" horiz-adv-x="1024" 
d="M1280 3072v-512h-256v-2560h-768v256h-256v2560h256v256h256v256h512v-256h256zM256 2560h256v256h256v256h-256v-256h-256v-256zM256 512h256v1792h-256v-1792z" />
    <glyph glyph-name="Icircumflex" unicode="&#xce;" horiz-adv-x="1024" 
d="M1280 2816v-512h-256v-2304h-768v256h-256v2048h-256v512h256v256h256v256h512v-256h256v-256h256zM512 2560h256v256h-256v256h-256v-256h256v-256zM0 2560h256v256h-256v-256zM256 512h256v1792h-256v-1792z" />
    <glyph glyph-name="Idieresis" unicode="&#xcf;" horiz-adv-x="1024" 
d="M1280 2816v-512h-256v-2304h-768v256h-256v2048h-256v512h256v256h1024v-256h256zM512 2560h256v256h-256v-256zM0 2560h256v256h-256v-256zM256 512h256v1792h-256v-1792z" />
    <glyph glyph-name="Ntilde" unicode="&#xd1;" 
d="M2048 2304v-2304h-768v256h-256v-256h-768v256h-256v2048h256v512h256v256h256v256h1024v-256h256v-512h-256v-256h256zM1024 2560h256v256h256v256h-256v-256h-256v256h-256v-256h256v-256zM512 2560h256v256h-256v-256zM1280 512h256v1792h-256v-768h-256v-256h256
v-768zM1024 1536v256h-256v-256h256zM256 2304v-1792h256v1280h256v256h-256v256h-256z" />
    <glyph glyph-name="Ograve" unicode="&#xd2;" 
d="M2048 2048v-1792h-256v-256h-1280v256h-256v256h-256v1536h256v256h256v256h-256v512h256v256h512v-256h256v-256h256v-512h256v-256h256zM768 2560h256v256h-256v256h-256v-256h256v-256zM512 512h768v256h256v1280h-256v256h-768v-256h768v-1280h-768v1280h-256v-1280
h256v-256z" />
    <glyph glyph-name="Oacute" unicode="&#xd3;" 
d="M2048 2048v-1792h-256v-256h-1280v256h-256v256h-256v1536h256v256h256v512h256v256h256v256h512v-256h256v-512h-256v-256h256v-256h256zM768 2560h256v256h256v256h-256v-256h-256v-256zM512 512h768v256h256v1280h-256v256h-768v-256h768v-1280h-768v1280h-256v-1280
h256v-256z" />
    <glyph glyph-name="Ocircumflex" unicode="&#xd4;" 
d="M2048 2048v-1792h-256v-256h-1280v256h-256v256h-256v1536h256v768h256v256h256v256h512v-256h256v-256h256v-768h256zM1024 2560h256v256h-256v256h-256v-256h256v-256zM512 2560h256v256h-256v-256zM512 512h768v256h256v1280h-256v256h-768v-256h768v-1280h-768v1280
h-256v-1280h256v-256z" />
    <glyph glyph-name="Otilde" unicode="&#xd5;" 
d="M2048 2304v-2048h-256v-256h-1280v256h-256v256h-256v1792h256v512h256v256h256v256h1024v-256h256v-512h-256v-256h256zM1024 2560h256v256h256v256h-256v-256h-256v256h-256v-256h256v-256zM512 2560h256v256h-256v-256zM512 512h768v256h256v1536h-256v-1536h-768
v1536h-256v-1536h256v-256z" />
    <glyph glyph-name="Odieresis" unicode="&#xd6;" 
d="M2048 2048v-1792h-256v-256h-1280v256h-256v256h-256v1536h256v768h256v256h1024v-256h256v-768h256zM1024 2560h256v256h-256v-256zM512 2560h256v256h-256v-256zM512 512h768v256h256v1280h-256v256h-768v-256h768v-1280h-768v1280h-256v-1280h256v-256z" />
    <glyph glyph-name="multiply" unicode="&#xd7;" horiz-adv-x="1536" 
d="M1536 1792v-1280h-1280v256h-256v1024h256v256h1024v-256h256zM768 1024h256v256h-256v256h256v256h-256v-256h-256v256h-256v-256h256v-256h256v-256zM256 1024h256v256h-256v-256z" />
    <glyph glyph-name="Oslash" unicode="&#xd8;" 
d="M2048 2048v-1792h-256v-256h-1280v256h-256v256h-256v1536h256v256h256v256h1024v-256h256v-256h256zM512 1024h256v256h256v256h256v-768h256v1280h-256v256h-768v-256h768v-256h-256v-256h-256v-256h-256v768h-256v-1280h256v256zM512 512h768v256h-768v-256z" />
    <glyph glyph-name="Ugrave" unicode="&#xd9;" 
d="M2048 2304v-2048h-256v-256h-1280v256h-256v256h-256v1792h256v768h256v256h512v-256h256v-256h256v-256h256v-256h256zM768 2560h256v256h-256v256h-256v-256h256v-256zM512 512h768v256h256v1536h-256v-1536h-768v1536h-256v-1536h256v-256z" />
    <glyph glyph-name="Uacute" unicode="&#xda;" 
d="M2048 2304v-2048h-256v-256h-1280v256h-256v256h-256v1792h256v256h256v256h256v256h256v256h512v-256h256v-768h256zM768 2560h256v256h256v256h-256v-256h-256v-256zM512 512h768v256h256v1536h-256v-1536h-768v1536h-256v-1536h256v-256z" />
    <glyph glyph-name="Ucircumflex" unicode="&#xdb;" 
d="M2048 2304v-2048h-256v-256h-1280v256h-256v256h-256v1792h256v512h256v256h256v256h512v-256h256v-256h256v-512h256zM1024 2560h256v256h-256v256h-256v-256h256v-256zM512 2560h256v256h-256v-256zM512 512h768v256h256v1536h-256v-1536h-768v1536h-256v-1536h256
v-256z" />
    <glyph glyph-name="Udieresis" unicode="&#xdc;" 
d="M2048 2304v-2048h-256v-256h-1280v256h-256v256h-256v1792h256v512h256v256h1024v-256h256v-512h256zM1024 2560h256v256h-256v-256zM512 2560h256v256h-256v-256zM512 512h768v256h256v1536h-256v-1536h-768v1536h-256v-1536h256v-256z" />
    <glyph glyph-name="Yacute" unicode="&#xdd;" horiz-adv-x="2560" 
d="M2560 2304v-768h-256v-256h-256v-256h-256v-1024h-768v256h-256v768h-256v256h-256v256h-256v768h256v256h768v256h256v256h512v-256h256v-256h256v-256h256zM1024 2304h256v256h256v256h-256v-256h-256v-256zM1280 1280h256v256h256v256h256v512h-256v-512h-256v-256
h-768v256h-256v512h-256v-512h256v-256h256v-256h256v-768h256v768z" />
    <glyph glyph-name="germandbls" unicode="&#xdf;" 
d="M2048 1280v-768h-256v-256h-256v-256h-512v-768h-768v256h-256v2560h256v256h256v256h1024v-256h256v-256h256v-512h-256v-256h256zM1024 512h256v256h256v512h-256v256h256v512h-256v-512h-512v-256h512v-512h-256v-256zM256 -256h256v2304h768v256h-768v-256h-256
v-2304z" />
    <glyph glyph-name="agrave" unicode="&#xe0;" 
d="M2048 1792v-1792h-1536v256h-256v256h-256v512h256v256h256v256h-256v256h256v256h-256v512h256v256h512v-256h256v-256h256v-256h256v-256h256zM768 2048h256v256h-256v256h-256v-256h256v-256zM512 512h1024v1024h-256v256h-768v-256h768v-256h-768v-256h768v-256h-768
v-256zM256 1024v-256h256v256h-256z" />
    <glyph glyph-name="aacute" unicode="&#xe1;" 
d="M2048 1792v-1792h-1536v256h-256v256h-256v512h256v256h256v256h-256v256h256v512h256v256h256v256h512v-256h256v-768h256zM768 2048h256v256h256v256h-256v-256h-256v-256zM512 512h1024v1024h-256v256h-768v-256h768v-256h-768v-256h768v-256h-768v-256zM256 1024
v-256h256v256h-256z" />
    <glyph glyph-name="acircumflex" unicode="&#xe2;" 
d="M2048 1792v-1792h-1536v256h-256v256h-256v512h256v256h256v256h-256v768h256v256h256v256h512v-256h256v-256h256v-512h256zM1024 2048h256v256h-256v256h-256v-256h256v-256zM512 2048h256v256h-256v-256zM512 512h1024v1024h-256v256h-768v-256h768v-256h-768v-256
h768v-256h-768v-256zM256 1024v-256h256v256h-256z" />
    <glyph glyph-name="atilde" unicode="&#xe3;" 
d="M2048 1792v-1792h-1536v256h-256v256h-256v512h256v256h256v256h-256v768h256v256h256v256h1024v-256h256v-512h-256v-256h256zM1024 2048h256v256h256v256h-256v-256h-256v256h-256v-256h256v-256zM512 2048h256v256h-256v-256zM512 512h1024v1024h-256v256h-768v-256
h768v-256h-768v-256h768v-256h-768v-256zM256 1024v-256h256v256h-256z" />
    <glyph glyph-name="adieresis" unicode="&#xe4;" 
d="M2048 1792v-1792h-1536v256h-256v256h-256v512h256v256h256v256h-256v768h256v256h1024v-256h256v-512h256zM1024 2048h256v256h-256v-256zM512 2048h256v256h-256v-256zM512 512h1024v1024h-256v256h-768v-256h768v-256h-768v-256h768v-256h-768v-256zM256 1024v-256
h256v256h-256z" />
    <glyph glyph-name="aring" unicode="&#xe5;" 
d="M2048 1792v-1792h-1536v256h-256v256h-256v512h256v256h256v256h-256v256h256v256h-256v512h256v256h256v256h512v-256h256v-256h256v-768h256zM768 2048h256v256h256v256h-256v256h-256v-256h256v-256h-256v256h-256v-256h256v-256zM512 512h1024v1024h-256v256h-768
v-256h768v-256h-768v-256h768v-256h-768v-256zM256 1024v-256h256v256h-256z" />
    <glyph glyph-name="ae" unicode="&#xe6;" horiz-adv-x="3072" 
d="M3072 1536v-1536h-2560v256h-256v256h-256v512h256v256h256v256h-256v256h256v256h2048v-256h256v-256h256zM1536 1024h1024v512h-256v256h-768v-256h768v-256h-768v256h-256v-256h-768v-256h768v-256h256v256zM1536 512h1024v256h-1024v-256zM512 512h768v256h-768v-256
zM512 1792v-256h768v256h-768zM256 1024v-256h256v256h-256z" />
    <glyph glyph-name="ccedilla" unicode="&#xe7;" horiz-adv-x="1792" 
d="M1792 768v-768h-512v-256h-256v-256h-512v256h-256v768h-256v1024h256v256h256v256h1024v-256h256v-512h-512v-256h256v-256h256zM1024 512h256v256h-768v768h768v256h-768v-256h-256v-768h256v-256h256v-256h256v256zM512 0h256v256h-256v-256z" />
    <glyph glyph-name="egrave" unicode="&#xe8;" 
d="M2048 1536v-1536h-1536v256h-256v256h-256v1024h256v256h256v256h-256v512h256v256h512v-256h256v-256h256v-512h256v-256h256zM768 2048h256v256h-256v256h-256v-256h256v-256zM512 1024h1024v512h-256v256h-768v-256h768v-256h-768v256h-256v-768h256v256zM512 512
h1024v256h-1024v-256z" />
    <glyph glyph-name="eacute" unicode="&#xe9;" 
d="M2048 1536v-1536h-1536v256h-256v256h-256v1024h256v256h256v512h256v256h256v256h512v-256h256v-512h-256v-256h256v-256h256zM768 2048h256v256h256v256h-256v-256h-256v-256zM512 1024h1024v512h-256v256h-768v-256h768v-256h-768v256h-256v-768h256v256zM512 512
h1024v256h-1024v-256z" />
    <glyph glyph-name="ecircumflex" unicode="&#xea;" 
d="M2048 1536v-1536h-1536v256h-256v256h-256v1024h256v768h256v256h256v256h512v-256h256v-256h256v-768h256zM1024 2048h256v256h-256v256h-256v-256h256v-256zM512 2048h256v256h-256v-256zM512 1024h1024v512h-256v256h-768v-256h768v-256h-768v256h-256v-768h256v256z
M512 512h1024v256h-1024v-256z" />
    <glyph glyph-name="edieresis" unicode="&#xeb;" 
d="M2048 1536v-1536h-1536v256h-256v256h-256v1024h256v768h256v256h1024v-256h256v-768h256zM1024 2048h256v256h-256v-256zM512 2048h256v256h-256v-256zM512 1024h1024v512h-256v256h-768v-256h768v-256h-768v256h-256v-768h256v256zM512 512h1024v256h-1024v-256z" />
    <glyph glyph-name="igrave" unicode="&#xec;" horiz-adv-x="1024" 
d="M1024 2304v-2304h-768v256h-256v1792h-256v512h256v256h512v-256h256v-256h256zM256 2048h256v256h-256v256h-256v-256h256v-256zM256 512h256v1280h-256v-1280z" />
    <glyph glyph-name="iacute" unicode="&#xed;" horiz-adv-x="1024" 
d="M1280 2560v-512h-256v-2048h-768v256h-256v2048h256v256h256v256h512v-256h256zM256 2048h256v256h256v256h-256v-256h-256v-256zM256 512h256v1280h-256v-1280z" />
    <glyph glyph-name="icircumflex" unicode="&#xee;" horiz-adv-x="1024" 
d="M1280 2304v-512h-256v-1792h-768v256h-256v1536h-256v512h256v256h256v256h512v-256h256v-256h256zM512 2048h256v256h-256v256h-256v-256h256v-256zM0 2048h256v256h-256v-256zM256 512h256v1280h-256v-1280z" />
    <glyph glyph-name="idieresis" unicode="&#xef;" horiz-adv-x="1024" 
d="M1280 2304v-512h-256v-1792h-768v256h-256v1536h-256v512h256v256h1024v-256h256zM512 2048h256v256h-256v-256zM0 2048h256v256h-256v-256zM256 512h256v1280h-256v-1280z" />
    <glyph glyph-name="ntilde" unicode="&#xf1;" 
d="M2048 1536v-1280h-256v-256h-512v256h-512v-256h-512v256h-256v1536h256v512h256v256h256v256h1024v-256h256v-512h-256v-512h256zM1024 2048h256v256h256v256h-256v-256h-256v256h-256v-256h256v-256zM512 2048h256v256h-256v-256zM1280 512h256v1024h-256v-1024z
M256 1792v-1280h256v1024h768v256h-1024z" />
    <glyph glyph-name="ograve" unicode="&#xf2;" 
d="M2048 1536v-1024h-256v-256h-256v-256h-1024v256h-256v256h-256v1024h256v256h256v256h-256v512h256v256h512v-256h256v-256h256v-512h256v-256h256zM768 2048h256v256h-256v256h-256v-256h256v-256zM512 512h768v256h256v768h-256v256h-768v-256h768v-768h-768v768h-256
v-768h256v-256z" />
    <glyph glyph-name="oacute" unicode="&#xf3;" 
d="M2048 1536v-1024h-256v-256h-256v-256h-1024v256h-256v256h-256v1024h256v256h256v512h256v256h256v256h512v-256h256v-512h-256v-256h256v-256h256zM768 2048h256v256h256v256h-256v-256h-256v-256zM512 512h768v256h256v768h-256v256h-768v-256h768v-768h-768v768h-256
v-768h256v-256z" />
    <glyph glyph-name="ocircumflex" unicode="&#xf4;" 
d="M2048 1536v-1024h-256v-256h-256v-256h-1024v256h-256v256h-256v1024h256v768h256v256h256v256h512v-256h256v-256h256v-768h256zM1024 2048h256v256h-256v256h-256v-256h256v-256zM512 2048h256v256h-256v-256zM512 512h768v256h256v768h-256v256h-768v-256h768v-768
h-768v768h-256v-768h256v-256z" />
    <glyph glyph-name="otilde" unicode="&#xf5;" 
d="M2048 1536v-1024h-256v-256h-256v-256h-1024v256h-256v256h-256v1024h256v768h256v256h256v256h1024v-256h256v-512h-256v-512h256zM1024 2048h256v256h256v256h-256v-256h-256v256h-256v-256h256v-256zM512 2048h256v256h-256v-256zM512 512h768v256h256v768h-256v256
h-768v-256h768v-768h-768v768h-256v-768h256v-256z" />
    <glyph glyph-name="odieresis" unicode="&#xf6;" 
d="M2048 1536v-1024h-256v-256h-256v-256h-1024v256h-256v256h-256v1024h256v768h256v256h1024v-256h256v-768h256zM1024 2048h256v256h-256v-256zM512 2048h256v256h-256v-256zM512 512h768v256h256v768h-256v256h-768v-256h768v-768h-768v768h-256v-768h256v-256z" />
    <glyph glyph-name="divide" unicode="&#xf7;" horiz-adv-x="1536" 
d="M1536 1536v-768h-256v-512h-768v256h-256v512h-256v512h256v512h256v256h512v-256h256v-512h256zM512 1792h256v256h-256v-256zM256 1280h768v256h-768v-256zM512 768h256v256h-256v-256z" />
    <glyph glyph-name="oslash" unicode="&#xf8;" 
d="M2048 1536v-1024h-256v-256h-256v-256h-1024v256h-256v256h-256v1024h256v256h256v256h1024v-256h256v-256h256zM512 512h768v256h256v768h-256v256h-768v-256h512v-256h256v-512h-512v256h256v256h-256v-256h-256v512h-256v-768h256v-256z" />
    <glyph glyph-name="ugrave" unicode="&#xf9;" 
d="M2048 1792v-1536h-256v-256h-1280v256h-256v256h-256v1280h256v768h256v256h512v-256h256v-256h256v-256h256v-256h256zM768 2048h256v256h-256v256h-256v-256h256v-256zM512 512h768v256h256v1024h-256v-1024h-768v1024h-256v-1024h256v-256z" />
    <glyph glyph-name="uacute" unicode="&#xfa;" 
d="M2048 1792v-1536h-256v-256h-1280v256h-256v256h-256v1280h256v256h256v256h256v256h256v256h512v-256h256v-768h256zM768 2048h256v256h256v256h-256v-256h-256v-256zM512 512h768v256h256v1024h-256v-1024h-768v1024h-256v-1024h256v-256z" />
    <glyph glyph-name="ucircumflex" unicode="&#xfb;" 
d="M2048 1792v-1536h-256v-256h-1280v256h-256v256h-256v1280h256v512h256v256h256v256h512v-256h256v-256h256v-512h256zM1024 2048h256v256h-256v256h-256v-256h256v-256zM512 2048h256v256h-256v-256zM512 512h768v256h256v1024h-256v-1024h-768v1024h-256v-1024h256
v-256z" />
    <glyph glyph-name="udieresis" unicode="&#xfc;" 
d="M2048 1792v-1536h-256v-256h-1280v256h-256v256h-256v1280h256v512h256v256h1024v-256h256v-512h256zM1024 2048h256v256h-256v-256zM512 2048h256v256h-256v-256zM512 512h768v256h256v1024h-256v-1024h-768v1024h-256v-1024h256v-256z" />
    <glyph glyph-name="yacute" unicode="&#xfd;" 
d="M2048 1792v-2048h-256v-256h-256v-256h-1024v256h-256v512h256v256h-256v256h-256v1280h256v256h256v256h256v256h256v256h512v-256h256v-768h256zM768 2048h256v256h256v256h-256v-256h-256v-256zM512 -256h768v256h256v1792h-256v-1024h-768v-256h768v-512h-768v-256z
M256 1792v-1024h256v1024h-256z" />
    <glyph glyph-name="ydieresis" unicode="&#xff;" 
d="M2048 1792v-2048h-256v-256h-256v-256h-1024v256h-256v512h256v256h-256v256h-256v1280h256v512h256v256h1024v-256h256v-512h256zM1024 2048h256v256h-256v-256zM512 2048h256v256h-256v-256zM512 -256h768v256h256v1792h-256v-1024h-768v-256h768v-512h-768v-256z
M256 1792v-1024h256v1024h-256z" />
    <glyph glyph-name="dotlessi" unicode="&#x131;" horiz-adv-x="1024" 
d="M1024 1792v-1792h-768v256h-256v1792h768v-256h256zM256 512h256v1280h-256v-1280z" />
    <glyph glyph-name="OE" unicode="&#x152;" horiz-adv-x="2816" 
d="M2816 2048v-2048h-2304v256h-256v256h-256v1536h256v256h256v256h1792v-256h256v-256h256zM1536 1280h768v256h-768v512h768v256h-768v-256h-256v-1280h256v512zM1536 512h768v256h-768v-256zM512 512h768v256h-768v1280h768v256h-768v-256h-256v-1280h256v-256z" />
    <glyph glyph-name="oe" unicode="&#x153;" horiz-adv-x="3072" 
d="M3072 1536v-1536h-2560v256h-256v256h-256v1024h256v256h256v256h2048v-256h256v-256h256zM1536 1024h1024v512h-256v256h-768v-256h768v-256h-768v256h-256v-768h256v256zM1536 512h1024v256h-1024v-256zM512 512h768v256h-768v768h768v256h-768v-256h-256v-768h256
v-256z" />
    <glyph glyph-name="Scaron" unicode="&#x160;" 
d="M2048 1280v-1024h-256v-256h-1536v256h-256v512h256v256h-256v1024h256v256h256v256h-256v512h256v256h1024v-256h256v-768h256v-768h-256v-256h256zM768 2560h256v256h256v256h-256v-256h-256v256h-256v-256h256v-256zM256 512h1024v256h256v512h-256v-512h-1024v-256z
M512 2304v-256h1024v256h-1024zM1280 1280v256h-768v-256h768zM256 2048v-512h256v512h-256z" />
    <glyph glyph-name="scaron" unicode="&#x161;" 
d="M2048 1024v-512h-256v-256h-256v-256h-1280v256h-256v512h256v256h-256v512h256v256h256v256h-256v512h256v256h1024v-256h256v-768h256v-512h-256v-256h256zM768 2048h256v256h256v256h-256v-256h-256v256h-256v-256h256v-256zM256 512h1024v256h256v256h-256v-256
h-1024v-256zM512 1792v-256h1024v256h-1024zM1280 1024v256h-768v-256h768zM256 1536v-256h256v256h-256z" />
    <glyph glyph-name="Ydieresis" unicode="&#x178;" horiz-adv-x="2560" 
d="M2560 2304v-768h-256v-256h-256v-256h-256v-1024h-768v256h-256v768h-256v256h-256v256h-256v768h256v256h256v256h256v256h1024v-256h256v-256h256v-256h256zM1280 2560h256v256h-256v-256zM768 2560h256v256h-256v-256zM1280 1280h256v256h256v256h256v512h-256v-512
h-256v-256h-768v256h-256v512h-256v-512h256v-256h256v-256h256v-768h256v768z" />
    <glyph glyph-name="circumflex" unicode="&#x2c6;" horiz-adv-x="1536" 
d="M1536 2048v-768h-1280v256h-256v512h256v256h256v256h512v-256h256v-256h256zM768 1792h256v256h-256v256h-256v-256h256v-256zM256 1792h256v256h-256v-256z" />
    <glyph glyph-name="caron" unicode="&#x2c7;" horiz-adv-x="1536" 
d="M1536 2304v-512h-256v-256h-256v-256h-512v256h-256v256h-256v512h256v256h1024v-256h256zM512 1792h256v256h256v256h-256v-256h-256v256h-256v-256h256v-256z" />
    <glyph glyph-name="breve" unicode="&#x2d8;" horiz-adv-x="1792" 
d="M1792 2304v-512h-256v-256h-256v-256h-768v256h-256v256h-256v512h256v256h1280v-256h256zM512 1792h512v256h256v256h-256v-256h-512v-256zM256 2304v-256h256v256h-256z" />
    <glyph glyph-name="dotaccent" unicode="&#x2d9;" horiz-adv-x="1024" 
d="M1024 2304v-768h-768v256h-256v512h256v256h512v-256h256zM256 2048h256v256h-256v-256z" />
    <glyph glyph-name="ring" unicode="&#x2da;" horiz-adv-x="1536" 
d="M512 2560h512v-256h256v-256h256v-512h-256v-256h-256v-256h-512v256h-256v256h-256v512h256v256h256v256zM768 2304h-256v-256h-256v-256h256v256h256v256zM1024 2048h-256v-256h-256v-256h256v256h256v256z" />
    <glyph glyph-name="ogonek" unicode="&#x2db;" 
d="M1536 256v-768h-1024v256h-256v256h-256v512h256v256h512v-256h512v-256h256zM512 0h512v256h-512v-256zM256 512v-256h256v256h-256z" />
    <glyph glyph-name="tilde" unicode="&#x2dc;" horiz-adv-x="1792" 
d="M1792 2304v-512h-256v-512h-1280v256h-256v512h256v256h256v256h1024v-256h256zM768 1792h256v256h256v256h-256v-256h-256v256h-256v-256h256v-256zM256 1792h256v256h-256v-256z" />
    <glyph glyph-name="hungarumlaut" unicode="&#x2dd;" horiz-adv-x="1536" 
d="M1792 2304v-512h-256v-256h-1536v512h256v256h256v256h1024v-256h256zM768 1792h256v256h256v256h-256v-256h-256v256h-256v-256h256v-256zM256 1792h256v256h-256v-256z" />
    <glyph glyph-name="pi" unicode="&#x3c0;" horiz-adv-x="2304" 
d="M2304 1792v-768h-256v-1024h-1536v256h-256v1024h-256v512h256v256h1792v-256h256zM1536 1536h256v256h-1536v-256h256v-1024h256v1024h512v-1024h256v1024z" />
    <glyph glyph-name="endash" unicode="&#x2013;" horiz-adv-x="1280" 
d="M1280 1536v-768h-1024v256h-256v512h256v256h768v-256h256zM256 1280h512v256h-512v-256z" />
    <glyph glyph-name="emdash" unicode="&#x2014;" 
d="M2048 1536v-768h-1792v256h-256v512h256v256h1536v-256h256zM256 1280h1280v256h-1280v-256z" />
    <glyph glyph-name="quoteleft" unicode="&#x2018;" horiz-adv-x="1024" 
d="M1024 2304v-1024h-768v256h-256v768h256v256h512v-256h256zM256 1792h256v512h-256v-512z" />
    <glyph glyph-name="quoteright" unicode="&#x2019;" horiz-adv-x="1024" 
d="M1024 2304v-1024h-768v256h-256v768h256v256h512v-256h256zM256 1792h256v512h-256v-512z" />
    <glyph glyph-name="quotesinglbase" unicode="&#x201a;" horiz-adv-x="1024" 
d="M1024 512v-1024h-768v256h-256v768h256v256h512v-256h256zM256 0h256v512h-256v-512z" />
    <glyph glyph-name="quotedblleft" unicode="&#x201c;" horiz-adv-x="1536" 
d="M1536 2304v-1024h-1280v256h-256v768h256v256h1024v-256h256zM768 1792h256v512h-256v-512zM256 1792h256v512h-256v-512z" />
    <glyph glyph-name="quotedblright" unicode="&#x201d;" horiz-adv-x="1536" 
d="M1536 2304v-1024h-1280v256h-256v768h256v256h1024v-256h256zM768 1792h256v512h-256v-512zM256 1792h256v512h-256v-512z" />
    <glyph glyph-name="quotedblbase" unicode="&#x201e;" horiz-adv-x="1536" 
d="M1536 512v-1024h-1280v256h-256v768h256v256h1024v-256h256zM768 0h256v512h-256v-512zM256 0h256v512h-256v-512z" />
    <glyph glyph-name="bullet" unicode="&#x2022;" horiz-adv-x="1280" 
d="M1280 1792v-768h-256v-256h-768v256h-256v768h256v256h768v-256h256zM256 1280h512v512h-512v-512z" />
    <glyph glyph-name="ellipsis" unicode="&#x2026;" 
d="M2048 768v-768h-1792v256h-256v512h256v256h1536v-256h256zM1280 512h256v256h-256v-256zM768 512h256v256h-256v-256zM256 512h256v256h-256v-256z" />
    <glyph glyph-name="guilsinglleft" unicode="&#x2039;" horiz-adv-x="1280" 
d="M1280 1536v-1280h-768v256h-256v256h-256v512h256v256h256v256h512v-256h256zM512 768h256v256h-256v256h256v256h-256v-256h-256v-256h256v-256z" />
    <glyph glyph-name="guilsinglright" unicode="&#x203a;" horiz-adv-x="1280" 
d="M1280 1280v-512h-256v-256h-256v-256h-512v256h-256v1024h256v256h512v-256h256v-256h256zM256 768h256v256h256v256h-256v256h-256v-256h256v-256h-256v-256z" />
    <glyph glyph-name="fraction" unicode="&#x2044;" horiz-adv-x="1792" 
d="M1792 2560v-768h-256v-512h-256v-512h-256v-512h-256v-256h-512v256h-256v768h256v512h256v512h256v512h256v256h512v-256h256zM256 512h256v512h256v512h256v512h256v512h-256v-512h-256v-512h-256v-512h-256v-512z" />
    <glyph glyph-name="trademark" unicode="&#x2122;" horiz-adv-x="2816" 
d="M2816 2304v-1536h-768v256h-256v-256h-1280v256h-256v768h-256v512h256v256h1280v-256h512v256h512v-256h256zM2048 1280h256v1024h-256v-256h-256v-256h256v-512zM1536 1536h256v256h-256v-256zM256 2304v-256h256v-768h256v768h256v-768h256v512h256v256h-256v256
h-1024z" />
    <glyph glyph-name="product" unicode="&#x220f;" horiz-adv-x="2304" 
d="M2304 2304v-768h-256v-1536h-1536v256h-256v1536h-256v512h256v256h1792v-256h256zM1536 2048h256v256h-1536v-256h256v-1536h256v1536h512v-1536h256v1536z" />
    <glyph glyph-name="minus" unicode="&#x2212;" horiz-adv-x="1536" 
d="M1536 1536v-768h-1280v256h-256v512h256v256h1024v-256h256zM256 1280h768v256h-768v-256z" />
    <glyph glyph-name="notequal" unicode="&#x2260;" horiz-adv-x="1536" 
d="M1536 1792v-1280h-512v-256h-512v256h-256v256h-256v1024h256v256h256v256h512v-256h256v-256h256zM768 1024h256v256h-256v256h256v256h-256v256h-256v-256h-256v-256h256v-256h-256v-256h256v-256h256v256z" />
    <glyph glyph-name="lessequal" unicode="&#x2264;" horiz-adv-x="1280" 
d="M1280 1536v-1536h-1024v256h-256v1024h256v256h256v256h512v-256h256zM256 512h512v512h-256v256h256v256h-256v-256h-256v-256h256v-256h-256v-256z" />
    <glyph glyph-name="greaterequal" unicode="&#x2265;" horiz-adv-x="1280" 
d="M1280 1280v-1280h-1024v256h-256v1280h256v256h512v-256h256v-256h256zM256 512h512v256h-256v256h256v256h-256v256h-256v-256h256v-256h-256v-512z" />
    <glyph glyph-name="fi" unicode="&#xfb01;" 
d="M2048 2304v-2304h-1536v256h-256v1024h-256v512h256v256h256v256h256v256h1024v-256h256zM1280 2048h256v256h-256v-256zM1280 512h256v1280h-768v256h256v256h-256v-256h-256v-256h-256v-256h256v-1024h256v1024h512v-1024z" />
    <glyph glyph-name="fl" unicode="&#xfb02;" 
d="M2048 2304v-2304h-1536v256h-256v1024h-256v512h256v256h256v256h256v256h1024v-256h256zM1280 512h256v1792h-768v-256h512v-1536zM768 1536h256v256h-256v256h-256v-256h-256v-256h256v-1024h256v1024z" />
    </font>
</defs>
</svg>
