<?xml version="1.0" standalone="no"?>
<!DOCTYPE svg PUBLIC "-//W3C//DTD SVG 1.1//EN" "http://www.w3.org/Graphics/SVG/1.1/DTD/svg11.dtd" >
<svg xmlns="http://www.w3.org/2000/svg">
<metadata>
Created by FontPrep 20130207 at Mon Jul 14 13:13:19 2014
 By Nathanael Hananto Putro
Copyright Andrew Tyler
</metadata>
<defs>
<font id="c77cc0b51906a52dce748b6f62caea84" horiz-adv-x='1024' >
  <font-face 
    font-family="Minecraftia"
    font-weight="400"
    font-stretch="normal"
    units-per-em="2048"
    panose-1="0 0 4 0 0 0 0 0 0 0"
    ascent="1792"
    descent="-256"
    x-height="1280"
    cap-height="1792"
    bbox="-256 -512 2048 2560"
    underline-thickness="102"
    underline-position="244"
    unicode-range="U+0020-FB02"
  />
<missing-glyph horiz-adv-x="512" 
d="M0 0v1792h1792v-1792h-1792z" />
    <glyph glyph-name=".notdef" horiz-adv-x="512" 
d="M0 0v1792h1792v-1792h-1792z" />
    <glyph glyph-name="glyph1" horiz-adv-x="0" 
 />
    <glyph glyph-name="glyph2" horiz-adv-x="1308" 
 />
    <glyph glyph-name="space" unicode=" " horiz-adv-x="1308" 
 />
    <glyph glyph-name="exclam" unicode="!" horiz-adv-x="512" 
d="M0 512v1280h256v-1280h-256zM0 0v256h256v-256h-256z" />
    <glyph glyph-name="quotedbl" unicode="&#x22;" horiz-adv-x="1280" 
d="M0 1024v256h256v512h256v-512h-256v-256h-256zM768 1280v512h256v-512h-256zM768 1280v-256h-256v256h256z" />
    <glyph glyph-name="numbersign" unicode="#" 
d="M256 0v512h-256v256h256v256h-256v256h256v512h256v-512h256v512h256v-512h256v-256h-256v-256h256v-256h-256v-512h-256v512h-256v-512h-256zM768 768v256h-256v-256h256z" />
    <glyph glyph-name="dollar" unicode="$" 
d="M0 1024v256h256v256h256v256h256v-256h512v-256h-1024v-256h-256zM512 0v256h-512v256h1024v256h-768v256h768v-256h256v-256h-256v-256h-256v-256h-256z" />
    <glyph glyph-name="percent" unicode="%" 
d="M0 1280v512h256v-512h-256zM1024 0v512h256v-512h-256zM0 0v256h256v512h256v256h256v512h256v256h256v-256h-256v-512h-256v-256h-256v-512h-256v-256h-256z" />
    <glyph glyph-name="ampersand" unicode="&#x26;" 
d="M256 1280v256h256v256h256v-256h-256v-256h-256zM0 256v512h256v256h256v256h256v256h256v-256h-256v-512h256v-512h-256v256h-256v256h-256v-512h-256zM1024 768v256h256v-256h-256zM1024 256h256v-256h-256v256zM768 256v-256h-512v256h512z" />
    <glyph glyph-name="quotesingle" unicode="'" horiz-adv-x="768" 
d="M0 1024v256h256v512h256v-512h-256v-256h-256z" />
    <glyph glyph-name="parenleft" unicode="(" horiz-adv-x="1280" 
d="M0 512v768h256v256h256v256h512v-256h-512v-256h-256v-768h-256zM256 512h256v-256h-256v256zM512 256h512v-256h-512v256z" />
    <glyph glyph-name="parenright" unicode=")" horiz-adv-x="1280" 
d="M0 1536v256h512v-256h-512zM0 0v256h512v256h256v768h-256v256h256v-256h256v-768h-256v-256h-256v-256h-512z" />
    <glyph glyph-name="asterisk" unicode="*" horiz-adv-x="1280" 
d="M0 1024v256h256v-256h-256zM0 512v256h256v256h512v256h256v-256h-256v-256h-512v-256h-256zM768 768h256v-256h-256v256z" />
    <glyph glyph-name="plus" unicode="+" 
d="M512 256v512h-512v256h512v512h256v-512h512v-256h-512v-512h-256z" />
    <glyph glyph-name="comma" unicode="," horiz-adv-x="512" 
d="M0 -256v768h256v-768h-256z" />
    <glyph glyph-name="hyphen" unicode="-" 
d="M0 768v256h1280v-256h-1280z" />
    <glyph glyph-name="period" unicode="." horiz-adv-x="512" 
d="M0 0v512h256v-512h-256z" />
    <glyph glyph-name="slash" unicode="/" 
d="M0 0v256h256v512h256v256h256v512h256v256h256v-256h-256v-512h-256v-256h-256v-512h-256v-256h-256z" />
    <glyph glyph-name="zero" unicode="0" 
d="M0 256v1280h256v256h768v-256h-768v-768h256v-256h-256v-256h-256zM1024 1536h256v-1280h-256v768h-256v256h256v256zM768 1024v-256h-256v256h256zM1024 256v-256h-768v256h768z" />
    <glyph glyph-name="one" unicode="1" 
d="M0 0v256h512v1024h-256v256h256v256h256v-1536h512v-256h-1280z" />
    <glyph glyph-name="two" unicode="2" 
d="M0 1280v256h256v256h768v-256h-768v-256h-256zM0 0v512h256v256h256v256h512v512h256v-512h-256v-256h-512v-256h-256v-256h768v256h256v-512h-1280z" />
    <glyph glyph-name="three" unicode="3" 
d="M0 1280v256h256v256h768v-256h-768v-256h-256zM512 768v256h512v512h256v-512h-256v-256h-512zM0 256v256h256v-256h-256zM1024 768h256v-512h-256v512zM1024 256v-256h-768v256h768z" />
    <glyph glyph-name="four" unicode="4" 
d="M1024 0v512h-1024v512h256v-256h768v768h-256v256h512v-1792h-256zM768 1536v-256h-256v256h256zM512 1280v-256h-256v256h256z" />
    <glyph glyph-name="five" unicode="5" 
d="M0 1024v768h1280v-256h-1024v-256h768v-256h-1024zM0 256v256h256v-256h-256zM1024 1024h256v-768h-256v768zM1024 256v-256h-768v256h768z" />
    <glyph glyph-name="six" unicode="6" 
d="M0 256v1024h256v256h256v256h512v-256h-512v-256h-256v-256h768v-256h-768v-512h-256zM1024 768h256v-512h-256v512zM1024 256v-256h-768v256h768z" />
    <glyph glyph-name="seven" unicode="7" 
d="M512 0v768h256v256h256v512h-768v-256h-256v512h1280v-768h-256v-256h-256v-768h-256z" />
    <glyph glyph-name="eight" unicode="8" 
d="M0 1024v512h256v256h768v-256h-768v-512h-256zM0 256v512h256v256h768v512h256v-512h-256v-256h-768v-512h-256zM1024 768h256v-512h-256v512zM1024 256v-256h-768v256h768z" />
    <glyph glyph-name="nine" unicode="9" 
d="M0 1024v512h256v256h768v-256h-768v-512h768v512h256v-1024h-256v256h-768v256h-256zM256 0v256h512v256h256v-256h-256v-256h-512z" />
    <glyph glyph-name="colon" unicode=":" horiz-adv-x="512" 
d="M0 1024v512h256v-512h-256zM0 0v512h256v-512h-256z" />
    <glyph glyph-name="semicolon" unicode=";" horiz-adv-x="512" 
d="M0 1024v512h256v-512h-256zM0 -256v768h256v-768h-256z" />
    <glyph glyph-name="less" unicode="&#x3c;" horiz-adv-x="1280" 
d="M0 768v256h256v256h256v256h256v256h256v-256h-256v-256h-256v-256h-256v-256h-256zM256 768h256v-256h-256v256zM512 512h256v-256h-256v256zM768 256h256v-256h-256v256z" />
    <glyph glyph-name="equal" unicode="=" 
d="M0 1024v256h1280v-256h-1280zM0 256v256h1280v-256h-1280z" />
    <glyph glyph-name="greater" unicode="&#x3e;" horiz-adv-x="1280" 
d="M0 1536v256h256v-256h-256zM0 0v256h256v256h256v256h256v256h-256v256h-256v256h256v-256h256v-256h256v-256h-256v-256h-256v-256h-256v-256h-256z" />
    <glyph glyph-name="question" unicode="?" 
d="M0 1280v256h256v256h768v-256h-768v-256h-256zM512 512v256h256v256h256v512h256v-512h-256v-256h-256v-256h-256zM512 0v256h256v-256h-256z" />
    <glyph glyph-name="at" unicode="@" horiz-adv-x="1792" 
d="M512 512v768h512v-512h256v768h-1024v256h1024v-256h256v-1024h-1024zM0 256v1280h256v-1280h-256zM256 256h1024v-256h-1024v256z" />
    <glyph glyph-name="A" unicode="A" 
d="M0 0v1536h256v256h768v-256h-768v-512h768v512h256v-1536h-256v768h-768v-768h-256z" />
    <glyph glyph-name="B" unicode="B" 
d="M0 0v1792h1024v-256h-768v-256h768v-256h-768v-768h768v-256h-1024zM1024 1536h256v-256h-256v256zM1024 1024h256v-768h-256v768z" />
    <glyph glyph-name="C" unicode="C" 
d="M0 256v1280h256v256h768v-256h-768v-1280h-256zM1024 1536h256v-256h-256v256zM1024 256v256h256v-256h-256zM1024 256v-256h-768v256h768z" />
    <glyph glyph-name="D" unicode="D" 
d="M0 0v1792h1024v-256h-768v-1280h768v-256h-1024zM1024 1536h256v-1280h-256v1280z" />
    <glyph glyph-name="E" unicode="E" 
d="M0 0v1792h1280v-256h-1024v-256h512v-256h-512v-768h1024v-256h-1280z" />
    <glyph glyph-name="F" unicode="F" 
d="M0 0v1792h1280v-256h-1024v-256h512v-256h-512v-1024h-256z" />
    <glyph glyph-name="G" unicode="G" 
d="M0 256v1280h256v256h1024v-256h-1024v-1280h-256zM1024 256v768h-512v256h768v-1024h-256zM1024 256v-256h-768v256h768z" />
    <glyph glyph-name="H" unicode="H" 
d="M0 0v1792h256v-512h768v512h256v-1792h-256v1024h-768v-1024h-256z" />
    <glyph glyph-name="I" unicode="I" horiz-adv-x="1024" 
d="M0 0v256h256v1280h-256v256h768v-256h-256v-1280h256v-256h-768z" />
    <glyph glyph-name="J" unicode="J" 
d="M0 256v256h256v-256h-256zM1024 256v1536h256v-1536h-256zM1024 256v-256h-768v256h768z" />
    <glyph glyph-name="K" unicode="K" 
d="M0 0v1792h256v-512h512v-256h-512v-1024h-256zM1024 1536v256h256v-256h-256zM1024 1536v-256h-256v256h256zM768 1024h256v-256h-256v256zM1024 768h256v-768h-256v768z" />
    <glyph glyph-name="L" unicode="L" 
d="M0 0v1792h256v-1536h1024v-256h-1280z" />
    <glyph glyph-name="M" unicode="M" 
d="M1024 0v1280h-256v256h256v256h256v-1792h-256zM0 0v1792h256v-256h256v-256h-256v-1280h-256zM768 1280v-256h-256v256h256z" />
    <glyph glyph-name="N" unicode="N" 
d="M1024 0v768h-256v256h256v768h256v-1792h-256zM0 0v1792h256v-256h256v-256h-256v-1280h-256zM768 1024h-256v256h256v-256z" />
    <glyph glyph-name="O" unicode="O" 
d="M0 256v1280h256v256h768v-256h-768v-1280h-256zM1024 1536h256v-1280h-256v1280zM1024 256v-256h-768v256h768z" />
    <glyph glyph-name="P" unicode="P" 
d="M0 0v1792h1024v-256h-768v-256h768v-256h-768v-1024h-256zM1024 1536h256v-256h-256v256z" />
    <glyph glyph-name="Q" unicode="Q" 
d="M0 256v1280h256v256h768v-256h-768v-1280h-256zM1024 1536h256v-1024h-256v1024zM1024 512v-256h-256v256h256zM1024 256h256v-256h-256v256zM768 256v-256h-512v256h512z" />
    <glyph glyph-name="R" unicode="R" 
d="M0 0v1792h1024v-256h-768v-256h768v-256h-768v-1024h-256zM1024 1536h256v-256h-256v256zM1024 1024h256v-1024h-256v1024z" />
    <glyph glyph-name="S" unicode="S" 
d="M0 1280v256h256v256h1024v-256h-1024v-256h-256zM0 256v256h256v-256h-256zM256 1280h768v-256h-768v256zM1024 1024h256v-768h-256v768zM1024 256v-256h-768v256h768z" />
    <glyph glyph-name="T" unicode="T" 
d="M512 0v1536h-512v256h1280v-256h-512v-1536h-256z" />
    <glyph glyph-name="U" unicode="U" 
d="M0 256v1536h256v-1536h-256zM1024 256v1536h256v-1536h-256zM1024 256v-256h-768v256h768z" />
    <glyph glyph-name="V" unicode="V" 
d="M0 768v1024h256v-1024h-256zM1024 768v1024h256v-1024h-256zM1024 768v-512h-256v512h256zM256 768h256v-512h-256v512zM768 256v-256h-256v256h256z" />
    <glyph glyph-name="W" unicode="W" 
d="M1024 0v256h-256v256h256v1280h256v-1792h-256zM0 0v1792h256v-1280h256v-256h-256v-256h-256zM768 512h-256v256h256v-256z" />
    <glyph glyph-name="X" unicode="X" 
d="M0 1536v256h256v-256h-256zM0 0v768h256v256h256v256h-256v256h256v-256h256v256h256v256h256v-256h-256v-256h-256v-256h-256v-256h-256v-768h-256zM768 1024h256v-256h-256v256zM1024 768h256v-768h-256v768z" />
    <glyph glyph-name="Y" unicode="Y" 
d="M0 1536v256h256v-256h-256zM1024 1536v256h256v-256h-256zM1024 1536v-256h-256v256h256zM256 1536h256v-256h-256v256zM768 1280v-1280h-256v1280h256z" />
    <glyph glyph-name="Z" unicode="Z" 
d="M0 0v512h256v256h256v256h256v256h256v256h-1024v256h1280v-512h-256v-256h-256v-256h-256v-256h-256v-256h1022v-256h-1278z" />
    <glyph glyph-name="bracketleft" unicode="[" horiz-adv-x="1024" 
d="M0 0v1792h768v-256h-512v-1280h512v-256h-768z" />
    <glyph glyph-name="backslash" unicode="\" 
d="M0 1536v256h256v-256h-256zM256 1536h256v-512h-256v512zM512 1024h256v-256h-256v256zM768 768h256v-512h-256v512zM1024 256h256v-256h-256v256z" />
    <glyph glyph-name="bracketright" unicode="]" horiz-adv-x="1024" 
d="M0 0v256h512v1280h-512v256h768v-1792h-768z" />
    <glyph glyph-name="asciicircum" unicode="^" 
d="M0 1024v256h256v256h256v256h256v-256h-256v-256h-256v-256h-256zM768 1536h256v-256h-256v256zM1024 1280h256v-256h-256v256z" />
    <glyph glyph-name="underscore" unicode="_" 
d="M0 0v256h1280v-256h-1280z" />
    <glyph glyph-name="grave" unicode="`" horiz-adv-x="768" 
d="M0 1280v512h256v-512h-256zM256 1280h256v-256h-256v256z" />
    <glyph glyph-name="a" unicode="a" 
d="M256 1024v256h768v-256h-768zM0 256v256h256v256h768v256h256v-1024h-1024v256h768v256h-768v-256h-256z" />
    <glyph glyph-name="b" unicode="b" 
d="M0 0v1792h256v-768h256v-256h-256v-512h768v-256h-1024zM512 1024v256h512v-256h-512zM1024 1024h256v-768h-256v768z" />
    <glyph glyph-name="c" unicode="c" 
d="M0 256v768h256v256h768v-256h-768v-768h-256zM1024 1024h256v-256h-256v256zM1024 256v256h256v-256h-256zM1024 256v-256h-768v256h768z" />
    <glyph glyph-name="d" unicode="d" 
d="M0 256v768h256v256h512v-256h256v768h256v-1792h-1024v256h768v512h-256v256h-512v-768h-256z" />
    <glyph glyph-name="e" unicode="e" 
d="M0 256v768h256v256h768v-256h-768v-256h768v256h256v-512h-1024v-256h-256zM256 256h1024v-256h-1024v256z" />
    <glyph glyph-name="f" unicode="f" horiz-adv-x="1280" 
d="M256 0v1024h-256v256h256v256h256v256h512v-256h-512v-256h512v-256h-512v-1024h-256z" />
    <glyph glyph-name="g" unicode="g" 
d="M0 512v512h256v256h1024v-1280h-256v256h-768v256h768v512h-768v-512h-256zM0 -256v256h1024v-256h-1024z" />
    <glyph glyph-name="h" unicode="h" 
d="M0 0v1792h256v-768h256v-256h-256v-768h-256zM512 1024v256h512v-256h-512zM1024 1024h256v-1024h-256v1024z" />
    <glyph glyph-name="i" unicode="i" horiz-adv-x="512" 
d="M0 1536v256h256v-256h-256zM0 0v1280h256v-1280h-256z" />
    <glyph glyph-name="j" unicode="j" 
d="M1024 1536v256h256v-256h-256zM0 0v512h256v-512h-256zM1024 0v1280h256v-1280h-256zM1024 0v-256h-768v256h768z" />
    <glyph glyph-name="k" unicode="k" horiz-adv-x="1280" 
d="M0 0v1792h256v-1024h256v-256h-256v-512h-256zM768 1024v256h256v-256h-256zM768 1024v-256h-256v256h256zM512 512h256v-256h-256v256zM768 256h256v-256h-256v256z" />
    <glyph glyph-name="l" unicode="l" horiz-adv-x="768" 
d="M0 256v1536h256v-1536h-256zM256 256h256v-256h-256v256z" />
    <glyph glyph-name="m" unicode="m" 
d="M0 0v1280h512v-256h-256v-1024h-256zM1024 1024h-256v256h256v-256zM1024 1024h256v-1024h-256v1024zM768 1024v-512h-256v512h256z" />
    <glyph glyph-name="n" unicode="n" 
d="M0 0v1280h1024v-256h-768v-1024h-256zM1024 1024h256v-1024h-256v1024z" />
    <glyph glyph-name="o" unicode="o" 
d="M0 256v768h256v256h768v-256h-768v-768h-256zM1024 1024h256v-768h-256v768zM1024 256v-256h-768v256h768z" />
    <glyph glyph-name="p" unicode="p" 
d="M0 -256v1536h256v-256h256v256h512v-256h-512v-256h-256v-256h768v-256h-768v-512h-256zM1024 512v512h256v-512h-256z" />
    <glyph glyph-name="q" unicode="q" 
d="M1024 -256v512h-768v256h768v256h-256v256h256v256h256v-1536h-256zM0 512v512h256v256h512v-256h-512v-512h-256z" />
    <glyph glyph-name="r" unicode="r" 
d="M0 0v1280h256v-256h256v256h512v-256h-512v-256h-256v-768h-256zM1024 1024h256v-256h-256v256z" />
    <glyph glyph-name="s" unicode="s" 
d="M0 768v256h256v256h1024v-256h-1024v-256h-256zM0 0v256h1024v256h-768v256h768v-256h256v-256h-256v-256h-1024z" />
    <glyph glyph-name="t" unicode="t" horiz-adv-x="1024" 
d="M256 256v768h-256v256h256v512h256v-512h256v-256h-256v-768h-256zM512 256h256v-256h-256v256z" />
    <glyph glyph-name="u" unicode="u" 
d="M0 256v1024h256v-1024h768v1024h256v-1280h-1024v256h-256z" />
    <glyph glyph-name="v" unicode="v" 
d="M0 512v768h256v-768h-256zM1024 512v768h256v-768h-256zM1024 512v-256h-256v256h256zM256 512h256v-256h-256v256zM768 256v-256h-256v256h256z" />
    <glyph glyph-name="w" unicode="w" 
d="M0 256v1024h256v-1024h256v512h256v-512h256v1024h256v-1280h-1024v256h-256z" />
    <glyph glyph-name="x" unicode="x" 
d="M0 1024v256h256v-256h-256zM0 0v256h256v256h256v256h-256v256h256v-256h256v256h256v256h256v-256h-256v-256h-256v-256h-256v-256h-256v-256h-256zM768 512h256v-256h-256v256zM1024 256h256v-256h-256v256z" />
    <glyph glyph-name="y" unicode="y" 
d="M0 512v768h256v-768h768v768h256v-1280h-256v256h-768v256h-256zM0 -256v256h1024v-256h-1024z" />
    <glyph glyph-name="z" unicode="z" 
d="M0 0v256h256v256h256v256h256v256h-768v256h1280v-256h-256v-256h-256v-256h-256v-256h768v-256h-1280z" />
    <glyph glyph-name="braceleft" unicode="{" horiz-adv-x="1280" 
d="M0 768v256h256v512h256v256h512v-256h-512v-512h-256v-256h-256zM256 768h256v-512h-256v512zM512 256h512v-256h-512v256z" />
    <glyph glyph-name="bar" unicode="|" horiz-adv-x="512" 
d="M0 1024v768h256v-768h-256zM0 0v768h256v-768h-256z" />
    <glyph glyph-name="braceright" unicode="}" horiz-adv-x="1280" 
d="M0 1536v256h512v-256h-512zM0 0v256h512v512h256v256h-256v512h256v-512h256v-256h-256v-512h-256v-256h-512z" />
    <glyph glyph-name="asciitilde" unicode="~" horiz-adv-x="1792" 
d="M0 1280v256h256v256h512v-256h-512v-256h-256zM1280 1536v256h256v-256h-256zM1280 1536v-256h-512v256h512z" />
    <glyph glyph-name="exclamdown" unicode="&#xa1;" horiz-adv-x="512" 
d="M0 1280v256h256v-256h-256zM0 0v1024h256v-1024h-256z" />
    <glyph glyph-name="cent" unicode="&#xa2;" 
d="M512 0v256h-256v256h256v768h-256v256h256v256h256v-256h256v-256h-256v-768h256v-256h-256v-256h-256zM0 512v768h256v-768h-256zM1024 1280h256v-256h-256v256zM1024 512v256h256v-256h-256z" />
    <glyph glyph-name="sterling" unicode="&#xa3;" 
d="M0 0v256h256v512h-256v256h256v512h256v256h512v-256h-512v-512h512v-256h-512v-512h768v-256h-1280zM1024 1536h256v-256h-256v256z" />
    <glyph glyph-name="currency" unicode="&#xa4;" horiz-adv-x="1280" 
d="M0 1280v256h256v-256h-256zM0 768v256h256v256h512v256h256v-256h-256v-256h-512v-256h-256zM0 256v256h256v256h512v256h256v-256h-256v-256h-512v-256h-256zM768 512h256v-256h-256v256z" />
    <glyph glyph-name="yen" unicode="&#xa5;" 
d="M0 1536v256h256v-256h-256zM512 0v256h-256v256h256v256h-256v256h256v256h-256v256h256v-256h256v256h256v256h256v-256h-256v-256h-256v-256h256v-256h-256v-256h256v-256h-256v-256h-256z" />
    <glyph glyph-name="brokenbar" unicode="&#xa6;" horiz-adv-x="512" 
d="M0 1024v768h256v-768h-256zM0 0v768h256v-768h-256z" />
    <glyph glyph-name="section" unicode="&#xa7;" horiz-adv-x="1280" 
d="M0 1280v256h256v256h768v-256h-768v-256h-256zM0 768v256h256v256h512v-256h-512v-256h-256zM0 0v256h768v256h-512v256h512v256h256v-256h-256v-256h256v-256h-256v-256h-768z" />
    <glyph glyph-name="dieresis" unicode="&#xa8;" 
d="M768 1536v256h512v-256h-512zM0 1536v256h512v-256h-512z" />
    <glyph glyph-name="copyright" unicode="&#xa9;" horiz-adv-x="1792" 
d="M256 0v256h-256v768h256v256h1024v-256h-256v-256h-256v-256h-256v512h-256v-512h256v-256h256v256h256v-256h256v768h256v-768h-256v-256h-1024z" />
    <glyph glyph-name="ordfeminine" unicode="&#xaa;" horiz-adv-x="1024" 
d="M0 1024v256h256v256h-256v256h512v-256h256v-512h-768z" />
    <glyph glyph-name="guillemotleft" unicode="&#xab;" 
d="M0 512v256h256v256h256v256h256v-256h-256v-256h-256v-256h-256zM1024 1024v256h256v-256h-256zM1024 1024v-256h-256v256h256zM768 768v-256h-256v256h256zM768 512h256v-256h-256v256zM512 512v-256h-256v256h256zM1024 256h256v-256h-256v256zM768 256v-256h-256v256
h256z" />
    <glyph glyph-name="logicalnot" unicode="&#xac;" 
d="M1024 0v512h-1024v256h1280v-768h-256z" />
    <glyph glyph-name="uni00AD" unicode="&#xad;" 
d="M0 1024v256h1280v-256h-1280z" />
    <glyph glyph-name="registered" unicode="&#xae;" horiz-adv-x="1792" 
d="M0 768v768h256v256h1024v-256h256v-768h-256v-256h-1024v256h256v512h256v256h-512v-768h-256zM1024 768v256h-256v-256h256zM1280 1536h-256v-256h256v256z" />
    <glyph glyph-name="macron" unicode="&#xaf;" 
d="M0 1536v256h1280v-256h-1280z" />
    <glyph glyph-name="degree" unicode="&#xb0;" horiz-adv-x="1024" 
d="M0 1280v256h256v256h256v-256h-256v-256h-256zM512 1536h256v-256h-256v256zM512 1280v-256h-256v256h256z" />
    <glyph glyph-name="plusminus" unicode="&#xb1;" horiz-adv-x="1792" 
d="M512 512v512h-512v256h512v512h512v-512h512v-256h-512v-512h-512zM0 0v256h1536v-256h-1536z" />
    <glyph glyph-name="uni00B2" unicode="&#xb2;" horiz-adv-x="1280" 
d="M0 512v512h256v256h256v256h-512v256h768v-256h256v-256h-256v-256h-256v-256h512v-256h-1024z" />
    <glyph glyph-name="uni00B3" unicode="&#xb3;" horiz-adv-x="1280" 
d="M0 512v256h512v256h-256v256h256v256h-512v256h768v-256h256v-768h-256v-256h-768z" />
    <glyph glyph-name="acute" unicode="&#xb4;" horiz-adv-x="768" 
d="M0 1024v256h256v512h256v-512h-256v-256h-256z" />
    <glyph glyph-name="uni00B5" unicode="&#xb5;" horiz-adv-x="2048" 
d="M0 256v256h256v1280h512v-768h512v768h512v-768h-256v-256h-768v-256h-256v-256h-512z" />
    <glyph glyph-name="paragraph" unicode="&#xb6;" horiz-adv-x="2304" 
d="M768 0v768h-512v256h-256v512h256v256h1792v-1792h-512v1536h-256v-1536h-512zM768 1024v512h-256v-512h256z" />
    <glyph glyph-name="periodcentered" unicode="&#xb7;" horiz-adv-x="768" 
d="M0 512v256h512v-256h-512z" />
    <glyph glyph-name="cedilla" unicode="&#xb8;" horiz-adv-x="1024" 
d="M0 512v256h256v256h256v-512h-512zM0 0v256h512v256h256v-256h-256v-256h-512z" />
    <glyph glyph-name="uni00B9" unicode="&#xb9;" horiz-adv-x="768" 
d="M256 1024v512h-256v256h512v-768h-256z" />
    <glyph glyph-name="ordmasculine" unicode="&#xba;" horiz-adv-x="1024" 
d="M0 1280v256h256v256h256v-256h-256v-256h-256zM512 1536h256v-256h-256v256zM512 1280v-256h-256v256h256z" />
    <glyph glyph-name="guillemotright" unicode="&#xbb;" 
d="M0 1024v256h256v-256h-256zM0 0v256h256v256h256v256h-256v256h256v256h256v-256h-256v-256h256v256h256v-256h-256v-256h-256v-256h-256v-256h-256zM1024 768h256v-256h-256v256zM1024 512v-256h-256v256h256zM768 256v-256h-256v256h256z" />
    <glyph glyph-name="onequarter" unicode="&#xbc;" 
d="M0 1280v512h256v-512h-256zM1024 0v256h-256v512h-256v256h256v512h256v256h256v-256h-256v-512h-256v-256h512v-768h-256zM0 0v256h256v512h256v-512h-256v-256h-256z" />
    <glyph glyph-name="onehalf" unicode="&#xbd;" 
d="M0 1280v512h256v-512h-256zM768 0v512h256v256h256v-256h-256v-256h256v-256h-512zM0 0v256h256v512h256v256h256v512h256v256h256v-256h-256v-512h-256v-256h-256v-512h-256v-256h-256z" />
    <glyph glyph-name="threequarters" unicode="&#xbe;" 
d="M1024 0v256h-256v512h-256v-512h-256v512h-256v256h256v256h-256v512h512v-768h256v-256h512v-768h-256zM0 0v256h256v-256h-256zM1024 1536v256h256v-256h-256zM1024 1536v-512h-256v512h256z" />
    <glyph glyph-name="questiondown" unicode="&#xbf;" 
d="M512 1536v256h256v-256h-256zM0 256v512h256v256h256v256h256v-256h-256v-256h-256v-512h-256zM1024 256v256h256v-256h-256zM1024 256v-256h-768v256h768z" />
    <glyph glyph-name="Agrave" unicode="&#xc0;" 
d="M256 2304v256h256v-256h-256zM0 0v1536h256v256h768v-256h-768v-512h768v512h256v-1536h-256v768h-768v-768h-256zM512 2304h256v-256h-256v256z" />
    <glyph glyph-name="Aacute" unicode="&#xc1;" 
d="M512 2048v256h256v256h256v-256h-256v-256h-256zM0 0v1536h256v256h768v-256h-768v-512h768v512h256v-1536h-256v768h-768v-768h-256z" />
    <glyph glyph-name="Acircumflex" unicode="&#xc2;" 
d="M256 2048v256h256v256h256v-256h-256v-256h-256zM0 0v1536h256v256h768v-256h-768v-512h768v512h256v-1536h-256v768h-768v-768h-256zM768 2304h256v-256h-256v256z" />
    <glyph glyph-name="Atilde" unicode="&#xc3;" 
d="M256 2048v256h768v-256h-768zM0 0v1536h256v256h768v-256h-768v-512h768v512h256v-1536h-256v768h-768v-768h-256z" />
    <glyph glyph-name="Adieresis" unicode="&#xc4;" 
d="M768 2048v256h512v-256h-512zM0 2048v256h512v-256h-512zM0 0v1536h256v256h768v-256h-768v-512h768v512h256v-1536h-256v768h-768v-768h-256z" />
    <glyph glyph-name="Aring" unicode="&#xc5;" 
d="M0 0v1536h256v512h256v256h256v-256h-256v-256h256v256h256v-512h-768v-512h768v512h256v-1536h-256v768h-768v-768h-256z" />
    <glyph glyph-name="AE" unicode="&#xc6;" 
d="M0 0v1536h256v256h1024v-256h-512v-256h256v-256h-256v-768h512v-256h-768v1024h-256v-1024h-256zM256 1536v-256h256v256h-256z" />
    <glyph glyph-name="Ccedilla" unicode="&#xc7;" 
d="M0 512v1024h256v256h768v-256h-768v-1024h-256zM768 -512v256h-256v256h512v256h-768v256h768v256h256v-256h-256v-256h256v-256h-256v-256h256v-256h-512zM1024 1536h256v-256h-256v256z" />
    <glyph glyph-name="Egrave" unicode="&#xc8;" 
d="M256 2304v256h256v-256h-256zM0 0v1792h1280v-256h-1024v-256h512v-256h-512v-768h1024v-256h-1280zM512 2304h256v-256h-256v256z" />
    <glyph glyph-name="Eacute" unicode="&#xc9;" 
d="M512 2048v256h256v256h256v-256h-256v-256h-256zM0 0v1792h1280v-256h-1024v-256h512v-256h-512v-768h1024v-256h-1280z" />
    <glyph glyph-name="Ecircumflex" unicode="&#xca;" 
d="M256 2048v256h256v256h256v-256h-256v-256h-256zM0 0v1792h1280v-256h-1024v-256h512v-256h-512v-768h1024v-256h-1280zM768 2304h256v-256h-256v256z" />
    <glyph glyph-name="Edieresis" unicode="&#xcb;" 
d="M768 2048v256h512v-256h-512zM0 2048v256h512v-256h-512zM0 0v1792h1280v-256h-1024v-256h512v-256h-512v-768h1024v-256h-1280z" />
    <glyph glyph-name="Igrave" unicode="&#xcc;" horiz-adv-x="768" 
d="M0 1792v256h256v-256h-256zM256 0v1280h256v-1280h-256zM256 1792h256v-256h-256v256z" />
    <glyph glyph-name="Iacute" unicode="&#xcd;" horiz-adv-x="1024" 
d="M256 1536v256h256v256h256v-256h-256v-256h-256zM256 0v1280h256v-1280h-256z" />
    <glyph glyph-name="Icircumflex" unicode="&#xce;" horiz-adv-x="1024" 
d="M0 1536v256h256v256h256v-256h-256v-256h-256zM256 0v1280h256v-1280h-256zM512 1792h256v-256h-256v256z" />
    <glyph glyph-name="Idieresis" unicode="&#xcf;" horiz-adv-x="1024" 
d="M512 1536v256h256v-256h-256zM0 1536v256h256v-256h-256zM256 0v1280h256v-1280h-256z" />
    <glyph glyph-name="Eth" unicode="&#xd0;" 
d="M0 0v768h-256v256h256v768h1024v-256h-768v-512h512v-256h-512v-512h768v-256h-1024zM1024 1536h256v-1280h-256v1280z" />
    <glyph glyph-name="Ntilde" unicode="&#xd1;" 
d="M256 2048v256h768v-256h-768zM1024 0v768h-256v256h256v768h256v-1792h-256zM0 0v1792h256v-256h256v-256h-256v-1280h-256zM768 1024h-256v256h256v-256z" />
    <glyph glyph-name="Ograve" unicode="&#xd2;" 
d="M256 2304v256h256v-256h-256zM0 256v1280h256v256h768v-256h-768v-1280h-256zM512 2304h256v-256h-256v256zM1024 1536h256v-1280h-256v1280zM1024 256v-256h-768v256h768z" />
    <glyph glyph-name="Oacute" unicode="&#xd3;" 
d="M512 2048v256h256v256h256v-256h-256v-256h-256zM0 256v1280h256v256h768v-256h-768v-1280h-256zM1024 1536h256v-1280h-256v1280zM1024 256v-256h-768v256h768z" />
    <glyph glyph-name="Ocircumflex" unicode="&#xd4;" 
d="M256 2048v256h256v256h256v-256h-256v-256h-256zM0 256v1280h256v256h512v512h256v-768h-768v-1280h-256zM1024 1536h256v-1280h-256v1280zM1024 256v-256h-768v256h768z" />
    <glyph glyph-name="Otilde" unicode="&#xd5;" 
d="M256 2048v256h768v-256h-768zM0 256v1280h256v256h768v-256h-768v-1280h-256zM1024 1536h256v-1280h-256v1280zM1024 256v-256h-768v256h768z" />
    <glyph glyph-name="Odieresis" unicode="&#xd6;" 
d="M768 2048v256h512v-256h-512zM0 2048v256h512v-256h-512zM0 256v1280h256v256h768v-256h-768v-1280h-256zM1024 1536h256v-1280h-256v1280zM1024 256v-256h-768v256h768z" />
    <glyph glyph-name="multiply" unicode="&#xd7;" 
d="M0 1280v256h256v-256h-256zM0 256v256h256v256h256v256h-256v256h256v-256h256v256h256v256h256v-256h-256v-256h-256v-256h-256v-256h-256v-256h-256zM768 768h256v-256h-256v256zM1024 512h256v-256h-256v256z" />
    <glyph glyph-name="Oslash" unicode="&#xd8;" 
d="M0 256v1280h256v256h768v-256h-768v-768h256v-256h-256v-256h-256zM1024 1536h256v-1280h-256v768h-256v256h256v256zM768 1024v-256h-256v256h256zM1024 256v-256h-768v256h768z" />
    <glyph glyph-name="Ugrave" unicode="&#xd9;" 
d="M256 2048v256h256v-256h-256zM0 256v1536h256v-1536h-256zM512 2048h256v-256h-256v256zM1024 256v1536h256v-1536h-256zM1024 256v-256h-768v256h768z" />
    <glyph glyph-name="Uacute" unicode="&#xda;" 
d="M512 1792v256h256v256h256v-256h-256v-256h-256zM0 256v1536h256v-1536h-256zM1024 256v1536h256v-1536h-256zM1024 256v-256h-768v256h768z" />
    <glyph glyph-name="Ucircumflex" unicode="&#xdb;" 
d="M256 2048v256h768v-256h-768zM0 256v1536h256v-1536h-256zM1024 256v1536h256v-1536h-256zM1024 256v-256h-768v256h768z" />
    <glyph glyph-name="Udieresis" unicode="&#xdc;" 
d="M768 2048v256h512v-256h-512zM0 2048v256h512v-256h-512zM0 256v1536h256v-1536h-256zM1024 256v1536h256v-1536h-256zM1024 256v-256h-768v256h768z" />
    <glyph glyph-name="Yacute" unicode="&#xdd;" 
d="M512 1792v256h256v256h256v-256h-256v-256h-256zM0 1536v256h256v-256h-256zM1024 1536v256h256v-256h-256zM1024 1536v-256h-256v256h256zM256 1536h256v-256h-256v256zM768 1280v-1280h-256v1280h256z" />
    <glyph glyph-name="Thorn" unicode="&#xde;" horiz-adv-x="1280" 
d="M0 0v1792h256v-256h512v-256h-512v-768h512v-256h-512v-256h-256zM768 1280h256v-768h-256v768z" />
    <glyph glyph-name="germandbls" unicode="&#xdf;" 
d="M0 0v1792h1024v-256h-768v-1536h-256zM768 768v256h256v512h256v-512h-256v-256h-256zM512 0v256h512v512h256v-768h-768z" />
    <glyph glyph-name="agrave" unicode="&#xe0;" 
d="M0 1536v256h512v-256h-512zM256 1024v256h768v-256h-768zM0 256v256h256v256h768v256h256v-512h-1024v-256h-256zM256 256h1024v-256h-1024v256z" />
    <glyph glyph-name="aacute" unicode="&#xe1;" 
d="M768 1536v256h512v-256h-512zM256 1024v256h768v-256h-768zM0 256v256h256v256h768v256h256v-1024h-1024v256h768v256h-768v-256h-256z" />
    <glyph glyph-name="acircumflex" unicode="&#xe2;" 
d="M512 1536v256h256v-256h-256zM256 1024v256h768v-256h-768zM0 256v256h256v256h768v256h256v-1024h-1024v256h768v256h-768v-256h-256z" />
    <glyph glyph-name="atilde" unicode="&#xe3;" 
d="M256 1536v256h768v-256h-768zM256 1024v256h768v-256h-768zM0 256v256h256v256h768v256h256v-1024h-1024v256h768v256h-768v-256h-256z" />
    <glyph glyph-name="adieresis" unicode="&#xe4;" 
d="M768 1536v256h256v-256h-256zM256 1536v256h256v-256h-256zM256 1024v256h768v-256h-768zM0 256v256h256v256h768v256h256v-1024h-1024v256h768v256h-768v-256h-256z" />
    <glyph glyph-name="aring" unicode="&#xe5;" 
d="M0 1280v256h256v256h768v-256h-768v-256h-256zM0 256v256h256v256h768v256h-768v256h768v256h256v-256h-256v-256h256v-1024h-1024v256h768v256h-768v-256h-256z" />
    <glyph glyph-name="ae" unicode="&#xe6;" 
d="M256 1024v256h256v-256h-256zM0 256v256h256v256h256v256h256v256h256v-256h-256v-256h256v256h256v-512h-512v-256h512v-256h-1024v256h256v256h-256v-256h-256z" />
    <glyph glyph-name="ccedilla" unicode="&#xe7;" 
d="M0 512v768h256v256h768v-256h-768v-768h-256zM0 -512v256h512v256h512v256h-768v256h768v256h256v-256h-256v-256h256v-256h-256v-256h-512v-256h-512zM1024 1280h256v-256h-256v256z" />
    <glyph glyph-name="egrave" unicode="&#xe8;" 
d="M0 1536v256h512v-256h-512zM0 256v768h256v256h768v-256h-768v-256h768v256h256v-512h-1024v-256h-256zM256 256h1024v-256h-1024v256z" />
    <glyph glyph-name="eacute" unicode="&#xe9;" 
d="M768 1536v256h512v-256h-512zM0 256v768h256v256h768v-256h-768v-256h768v256h256v-512h-1024v-256h-256zM256 256h1024v-256h-1024v256z" />
    <glyph glyph-name="ecircumflex" unicode="&#xea;" 
d="M512 1536v256h256v-256h-256zM0 256v768h256v256h768v-256h-768v-256h768v256h256v-512h-1024v-256h-256zM256 256h768v-256h-768v256z" />
    <glyph glyph-name="edieresis" unicode="&#xeb;" 
d="M768 1536v256h512v-256h-512zM0 1536v256h512v-256h-512zM0 256v768h256v256h768v-256h-768v-256h768v256h256v-512h-1024v-256h-256zM256 256h768v-256h-768v256z" />
    <glyph glyph-name="igrave" unicode="&#xec;" horiz-adv-x="768" 
d="M0 1536v512h256v-512h-256zM256 0v1280h256v-1280h-256z" />
    <glyph glyph-name="iacute" unicode="&#xed;" horiz-adv-x="768" 
d="M256 1536v512h256v-512h-256zM0 0v1280h256v-1280h-256z" />
    <glyph glyph-name="icircumflex" unicode="&#xee;" horiz-adv-x="512" 
d="M0 2048v256h256v-256h-256zM0 1536v256h256v-256h-256zM0 0v1280h256v-1280h-256z" />
    <glyph glyph-name="idieresis" unicode="&#xef;" horiz-adv-x="1024" 
d="M512 2048v256h256v-256h-256zM0 2048v256h256v-256h-256zM256 1536v256h256v-256h-256zM256 0v1280h256v-1280h-256z" />
    <glyph glyph-name="eth" unicode="&#xf0;" 
d="M256 1792v256h256v-256h256v256h256v-256h256v-1792h-1024v256h768v768h-768v256h768v256h-512v256h-256zM0 256v768h256v-768h-256z" />
    <glyph glyph-name="ntilde" unicode="&#xf1;" 
d="M256 1536v256h768v-256h-768zM0 0v1280h1024v-256h-768v-1024h-256zM1024 1024h256v-1024h-256v1024z" />
    <glyph glyph-name="ograve" unicode="&#xf2;" 
d="M0 1536v256h512v-256h-512zM0 256v768h256v256h768v-256h-768v-768h-256zM1024 1024h256v-768h-256v768zM1024 256v-256h-768v256h768z" />
    <glyph glyph-name="oacute" unicode="&#xf3;" 
d="M768 1536v256h512v-256h-512zM0 256v768h256v256h768v-256h-768v-768h-256zM1024 1024h256v-768h-256v768zM1024 256v-256h-768v256h768z" />
    <glyph glyph-name="ocircumflex" unicode="&#xf4;" 
d="M256 1536v256h768v-256h-768zM0 256v768h256v256h768v256h256v-256h-256v-256h-768v-768h-256zM1024 1024h256v-768h-256v768zM1024 256v-256h-768v256h768z" />
    <glyph glyph-name="otilde" unicode="&#xf5;" 
d="M256 1536v256h768v-256h-768zM0 256v768h256v256h768v-256h-768v-768h-256zM1024 1024h256v-768h-256v768zM1024 256v-256h-768v256h768z" />
    <glyph glyph-name="odieresis" unicode="&#xf6;" 
d="M768 1536v256h512v-256h-512zM0 1536v256h512v-256h-512zM0 256v768h256v256h768v-256h-768v-768h-256zM1024 1024h256v-768h-256v768zM1024 256v-256h-768v256h768z" />
    <glyph glyph-name="divide" unicode="&#xf7;" horiz-adv-x="1792" 
d="M512 1280v512h512v-512h-512zM0 768v256h1536v-256h-1536zM512 0v512h512v-512h-512z" />
    <glyph glyph-name="oslash" unicode="&#xf8;" 
d="M256 0v256h-256v768h256v256h768v-256h256v-768h-256v512h-256v256h-512v-512h256v-256h512v-256h-768zM768 768v-256h-256v256h256z" />
    <glyph glyph-name="ugrave" unicode="&#xf9;" 
d="M0 1536v256h512v-256h-512zM0 256v1024h256v-1024h768v1024h256v-1280h-1024v256h-256z" />
    <glyph glyph-name="uacute" unicode="&#xfa;" 
d="M768 1536v256h512v-256h-512zM0 256v1024h256v-1024h768v1024h256v-1280h-1024v256h-256z" />
    <glyph glyph-name="ucircumflex" unicode="&#xfb;" 
d="M512 1536v256h256v-256h-256zM0 256v1024h256v-1024h768v1024h256v-1280h-1024v256h-256z" />
    <glyph glyph-name="udieresis" unicode="&#xfc;" 
d="M768 1536v256h256v-256h-256zM256 1536v256h256v-256h-256zM0 256v1024h256v-1024h768v1024h256v-1280h-1024v256h-256z" />
    <glyph glyph-name="yacute" unicode="&#xfd;" 
d="M512 1280v256h256v256h256v-256h-256v-256h-256zM0 512v768h256v-768h768v768h256v-1280h-256v256h-768v256h-256zM0 -256v256h1024v-256h-1024z" />
    <glyph glyph-name="thorn" unicode="&#xfe;" horiz-adv-x="1024" 
d="M0 -256v1792h256v-512h256v-256h-256v-256h256v-256h-256v-512h-256zM512 768h256v-256h-256v256z" />
    <glyph glyph-name="ydieresis" unicode="&#xff;" 
d="M768 1536v256h256v-256h-256zM256 1536v256h256v-256h-256zM0 512v768h256v-768h768v768h256v-1280h-256v256h-768v256h-256zM0 -256v256h1024v-256h-1024z" />
    <glyph glyph-name="Ydieresis" unicode="&#x178;" 
d="M768 2048v256h512v-256h-512zM0 2048v256h512v-256h-512zM0 1536v256h256v-256h-256zM1024 1536v256h256v-256h-256zM1024 1536v-256h-256v256h256zM256 1536h256v-256h-256v256zM768 1280v-1280h-256v1280h256z" />
    <glyph glyph-name="uni1E9E" unicode="&#x1e9e;" 
d="M0 0v1792h1024v-256h-768v-1536h-256zM512 0v256h512v512h-256v256h256v512h256v-1280h-256v-256h-512z" />
    <glyph glyph-name="emdash" unicode="&#x2014;" 
d="M0 768v256h1280v-256h-1280z" />
    <glyph glyph-name="quoteleft" unicode="&#x2018;" horiz-adv-x="768" 
d="M0 1024v256h256v512h256v-512h-256v-256h-256z" />
    <glyph glyph-name="quoteright" unicode="&#x2019;" horiz-adv-x="768" 
d="M0 1024v256h256v512h256v-512h-256v-256h-256z" />
    <glyph glyph-name="quotesinglbase" unicode="&#x201a;" horiz-adv-x="768" 
d="M0 0v256h256v512h256v-512h-256v-256h-256z" />
    <glyph glyph-name="quotereversed" unicode="&#x201b;" horiz-adv-x="768" 
d="M0 1280v512h256v-512h-256zM256 1280h256v-256h-256v256z" />
    <glyph glyph-name="quotedblleft" unicode="&#x201c;" horiz-adv-x="1280" 
d="M0 1024v256h256v512h256v-512h-256v-256h-256zM768 1280v512h256v-512h-256zM768 1280v-256h-256v256h256z" />
    <glyph glyph-name="quotedblright" unicode="&#x201d;" horiz-adv-x="1280" 
d="M0 1024v256h256v512h256v-512h-256v-256h-256zM768 1280v512h256v-512h-256zM768 1280v-256h-256v256h256z" />
    <glyph glyph-name="quotedblbase" unicode="&#x201e;" horiz-adv-x="1280" 
d="M0 0v256h256v512h256v-512h-256v-256h-256zM768 256v512h256v-512h-256zM768 256v-256h-256v256h256z" />
    <glyph glyph-name="dagger" unicode="&#x2020;" 
d="M512 0v1024h-512v256h512v512h256v-512h512v-256h-512v-1024h-256z" />
    <glyph glyph-name="bullet" unicode="&#x2022;" horiz-adv-x="1024" 
d="M256 512v256h-256v256h256v256h256v-256h256v-256h-256v-256h-256z" />
    <glyph glyph-name="ellipsis" unicode="&#x2026;" 
d="M1024 0v512h256v-512h-256zM512 0v512h256v-512h-256zM0 0v512h256v-512h-256z" />
    <glyph glyph-name="guilsinglleft" unicode="&#x2039;" horiz-adv-x="1024" 
d="M0 768v256h256v256h256v256h256v-256h-256v-256h-256v-256h-256zM256 768h256v-256h-256v256zM512 512h256v-256h-256v256z" />
    <glyph glyph-name="guilsinglright" unicode="&#x203a;" horiz-adv-x="1024" 
d="M0 1280v256h256v-256h-256zM0 256v256h256v256h256v256h-256v256h256v-256h256v-256h-256v-256h-256v-256h-256z" />
    <glyph glyph-name="Euro" unicode="&#x20ac;" 
d="M512 0v256h-256v256h-256v768h256v256h256v256h768v-256h-512v-256h-256v-256h768v-256h-768v-256h256v-256h512v-256h-768z" />
    <glyph glyph-name="trademark" unicode="&#x2122;" horiz-adv-x="1792" 
d="M256 1024v512h-256v256h768v-256h256v256h256v-256h256v-512h-512v256h-256v-256h-512z" />
    <glyph glyph-name="uniFB01" unicode="&#xfb01;" 
d="M1024 1536v256h256v-256h-256zM256 0v1024h-256v256h256v256h256v256h256v-256h-256v-256h768v-1280h-256v1024h-512v-1024h-256z" />
    <glyph glyph-name="uniFB02" unicode="&#xfb02;" 
d="M1024 0v1536h-512v256h768v-1792h-256zM256 0v1024h-256v256h256v256h256v-256h256v-256h-256v-1024h-256z" />
  </font>
</defs>
</svg>
